<?xml version="1.0" encoding="UTF-8"?>
<svg id="Layer_2" data-name="Layer 2" xmlns="http://www.w3.org/2000/svg" viewBox="0 0 406.19 561.79">
  <defs>
    <style>
      .cls-1 {
        fill: #f34d5f;
      }

      .cls-2 {
        fill: #f5d058;
      }

      .cls-3 {
        fill: #e89176;
      }

      .cls-4 {
        fill: #f4eff2;
      }

      .cls-5 {
        fill: #fdc6a2;
      }

      .cls-6 {
        fill: #e7dce2;
      }

      .cls-7 {
        fill: #f3d055;
      }

      .cls-8, .cls-9 {
        fill: #fff;
      }

      .cls-10 {
        fill: #fce9ae;
      }

      .cls-11 {
        fill: #efb430;
      }

      .cls-12 {
        fill: #ff6e83;
      }

      .cls-13 {
        fill: #6b40d3;
      }

      .cls-14 {
        fill: #b8cee1;
      }

      .cls-15 {
        fill: #9e64fa;
      }

      .cls-16 {
        fill: #b590fc;
      }

      .cls-17 {
        fill: #d6e6f2;
      }

      .cls-18 {
        fill: #ccabbe;
      }

      .cls-19 {
        fill: #d32941;
      }

      .cls-20 {
        fill: #afe4f9;
      }

      .cls-21 {
        fill: #d6213b;
      }

      .cls-22 {
        fill: #c6a8ba;
      }

      .cls-23 {
        fill: #e1dbe1;
      }

      .cls-24 {
        fill: #202730;
      }

      .cls-25 {
        fill: #0a3f4c;
      }

      .cls-26 {
        fill: #073c49;
      }

      .cls-27 {
        fill: #105366;
      }

      .cls-28 {
        fill: #111;
      }

      .cls-29, .cls-30 {
        fill: #277f93;
      }

      .cls-31 {
        fill: #60bcd8;
      }

      .cls-32 {
        fill: #7c47e2;
      }

      .cls-33 {
        stroke-width: 1.45px;
      }

      .cls-33, .cls-34 {
        fill: none;
        stroke: #111;
        stroke-miterlimit: 10;
      }

      .cls-35 {
        opacity: .3;
      }

      .cls-36 {
        opacity: .25;
      }

      .cls-34 {
        stroke-width: 1.34px;
      }

      .cls-30 {
        opacity: .61;
      }

      .cls-9 {
        font-family: Jost-Medium, Jost;
        font-size: 49.67px;
        font-weight: 500;
      }
    </style>
  </defs>
  <g id="Layer_2-2" data-name="Layer 2">
    <g>
      <path class="cls-24" d="M348.24,259.39c.18,1.16,1.04,2.14,2.1,2.65s2.27,.61,3.43,.47c.18-.02,.37-.05,.48-.19,.08-.1,.11-.24,.12-.37,.27-1.86,.54-3.77,.07-5.59-1.09,.08-2.16,.35-3.17,.78"/>
      <g class="cls-35">
        <circle class="cls-23" cx="372.43" cy="329.69" r="9.65"/>
        <circle class="cls-23" cx="259.35" cy="326.91" r="9.65"/>
        <polyline class="cls-34" points="287.97 266.83 287.97 329.03 362.73 329.03"/>
        <circle class="cls-34" cx="371.87" cy="329.03" r="9.74"/>
        <g>
          <circle class="cls-34" cx="259.35" cy="326.91" r="9.74"/>
          <line class="cls-34" x1="259.35" y1="290.71" x2="259.35" y2="317.16"/>
        </g>
      </g>
      <g class="cls-35">
        <circle class="cls-23" cx="140.56" cy="473.19" r="9.65"/>
        <circle class="cls-23" cx="143.34" cy="360.12" r="9.65"/>
        <polyline class="cls-34" points="203.42 388.73 141.22 388.73 141.22 463.5"/>
        <circle class="cls-34" cx="141.22" cy="472.64" r="9.74"/>
        <g>
          <circle class="cls-34" cx="143.34" cy="360.12" r="9.74"/>
          <line class="cls-34" x1="179.54" y1="360.12" x2="153.09" y2="360.12"/>
        </g>
      </g>
      <g class="cls-35">
        <circle class="cls-23" cx="308.25" cy="94.59" r="9.65"/>
        <circle class="cls-23" cx="305.47" cy="207.67" r="9.65"/>
        <polyline class="cls-34" points="245.39 179.05 307.59 179.05 307.59 104.29"/>
        <circle class="cls-34" cx="307.59" cy="95.15" r="9.74"/>
        <g>
          <circle class="cls-34" cx="305.47" cy="207.67" r="9.74"/>
          <line class="cls-34" x1="269.27" y1="207.67" x2="295.72" y2="207.67"/>
        </g>
      </g>
      <g class="cls-35">
        <circle class="cls-23" cx="53.63" cy="179.06" r="9.65"/>
        <circle class="cls-23" cx="52.17" cy="292.34" r="9.65"/>
        <circle class="cls-23" cx="49.43" cy="406.83" r="9.65"/>
        <g>
          <polyline class="cls-34" points="118.9 262.96 53.63 262.96 53.63 188.19"/>
          <circle class="cls-34" cx="53.63" cy="179.06" r="9.74"/>
        </g>
        <g>
          <polyline class="cls-34" points="113.69 322.93 49.32 322.93 49.32 397.7"/>
          <circle class="cls-34" cx="49.32" cy="406.83" r="9.74"/>
        </g>
        <g>
          <circle class="cls-34" cx="52.17" cy="292.91" r="9.74"/>
          <line class="cls-34" x1="113.97" y1="292.91" x2="61.92" y2="292.91"/>
        </g>
      </g>
      <g class="cls-36">
        <path class="cls-28" d="M275.33,497.19c7.99,16.69,15.97,33.39,23.96,50.08l6.77,14.15c.4,.84,1.65,.11,1.25-.73-7.99-16.69-15.97-33.39-23.96-50.08l-6.77-14.15c-.4-.84-1.65-.11-1.25,.73h0Z"/>
        <path class="cls-28" d="M296.71,513.09c4.69,9.81,9.39,19.62,14.08,29.43,1.79,3.74,3.58,7.48,5.37,11.22,.4,.84,1.65,.11,1.25-.73-4.69-9.81-9.39-19.62-14.08-29.43-1.79-3.74-3.58-7.48-5.37-11.22-.4-.84-1.65-.11-1.25,.73h0Z"/>
        <path class="cls-28" d="M299.09,493.86c4.69,9.81,9.39,19.62,14.08,29.43,1.79,3.74,3.58,7.48,5.37,11.22,.4,.84,1.65,.11,1.25-.73-4.69-9.81-9.39-19.62-14.08-29.43-1.79-3.74-3.58-7.48-5.37-11.22-.4-.84-1.65-.11-1.25,.73h0Z"/>
        <path class="cls-28" d="M312.96,496.95c4.69,9.81,9.39,19.62,14.08,29.43,1.79,3.74,3.58,7.48,5.37,11.22,.4,.84,1.65,.11,1.25-.73-4.69-9.81-9.39-19.62-14.08-29.43-1.79-3.74-3.58-7.48-5.37-11.22-.4-.84-1.65-.11-1.25,.73h0Z"/>
      </g>
      <path class="cls-15" d="M117.46,195.44c-1.56,6.34-3.13,12.67-4.69,19.01-.98,3.96-1.56,7.93-2.52,11.87-.98,4.04-1.84,8.12-2.59,12.21-3.86,21-4.99,42.36-7.36,63.55-.92,8.2,.4,16.5,.53,24.75,.29,18.21-1.08,36.41-3.09,54.5-1.01,9.06-2.22,18.1-3.39,27.14-.92,7.14,1.56,12.91,1.23,20.07-.03,.76-.09,1.56,.23,2.25,.49,1.08,1.72,1.58,2.83,1.96,14.05,4.84,29.95,6.84,44.84,6.53,14.9-.31,29.73-3.48,43.44-9.32l46.61-14.53c15.82-7.52,33.4-11.29,50.91-10.91l21.74-28.53,12.41-52.77c-7.06-19.41-29.17-52.72-36.24-72.14,0,0-41.93-29.94-41.94-29.94-.48-.34-1.55-.4-2.11-.55-7.22-1.87-14.44-3.74-21.66-5.62-11.58-3-23.16-6.01-34.73-9.01-11.63-3.02-23.26-6.03-34.89-9.05l-13.47-3.49c-4.08-1.06-8.97-1.62-11.91-4.94-.24-.27-.47-.56-.81-.68-1.01-.36-1.74,.96-2,2-.46,1.88-.93,3.77-1.39,5.65Z"/>
      <path class="cls-13" d="M293.53,405.52c-5-2.24-8.37-7.7-8.13-13.17,.11-2.51,.9-5.1,.12-7.49-1.16-3.54-5.13-5.13-8.12-7.37-4.81-3.6-7.49-9.86-6.77-15.83,.32-2.62,1.33-5.28,3.36-6.97,2.62-2.18,6.35-2.33,9.75-2.11,6.48,.41,12.9,1.78,18.99,4.05,3.36,1.25,6.66,2.79,9.46,5.03,8.39,6.68,10.95,19.66,5.72,29.02-3.88,6.94-11.04,11.35-18.13,14.97"/>
      <path class="cls-13" d="M254.22,247.7c1.23,6.21,.66,12.73,2.46,18.8,3.77,12.69,16.79,20.43,22.59,32.33-8.66,1.19-17.53-1.03-25.36-4.91-7.83-3.88-14.74-9.37-21.39-15.05-6.03-5.15-12.16-10.93-14.29-18.57-1.76-6.3-.49-13.19,2.51-19,2.91-5.63,9.97-16.62,17.33-15.33,8.47,1.48,14.7,14.41,16.14,21.72Z"/>
      <path class="cls-13" d="M176.57,432.09c-5-2.24-8.37-7.7-8.13-13.17,.11-2.51,.9-5.1,.12-7.49-1.29-3.96-5.83-6.34-8.57-9.14-3.85-3.94-6.57-8.85-7.52-14.31-.97-5.58-.12-11.3,.34-16.94,1.87-22.93-2.68-45.72-8.83-67.7-5.8-20.75-20.91-43.32-12.34-65.23,9.54,5.58,16.74,14.54,21.92,24.31s8.5,20.38,11.78,30.94c7.6,24.51,15.12,49.15,19.53,74.47,.82,4.7,.41,12.01,3.42,15.9,2.28,2.94,6.84,4.01,9.46,6.9,6.37,7.04,7.85,18.31,3.19,26.64-3.88,6.94-11.04,11.35-18.13,14.97"/>
      <path class="cls-1" d="M233.05,520.11c0,15.3,8.63,30.32,21.86,38.02,5.17,3.01,13.14,4.68,16.07-1.93,.9-2.03,1.2-4.28,1.39-6.5,.6-6.91,0-13.41-1.35-20.12-1.3-6.44-4.33-12.7-9.35-16.94l-2.5-2.51-6.34,2.9,.92-3.09-1.74-3.59s-1.69-1-2.11-1.08-2.46-.14-3.15,0-3.71,1.08-3.71,1.08l-3.55,1.91-1.98,1.68-.51,3.26,1.09,2.18,.96,1.23,1.77,.87-7.76,2.62Z"/>
      <path class="cls-21" d="M272.37,549.38c-.19,2.22-.49,4.46-1.39,6.5-2.31,5.21-7.74,5.28-12.47,3.61,.3-.09,.6-.19,.89-.3,2.43-.92,4.65-2.54,5.97-4.78,1.11-1.89,1.53-4.11,1.75-6.3,.73-7.14-.41-14.34-2.09-21.31-1.41-5.82-3.24-11.66-6.35-16.75l.48-.22,2.5,2.51c5.02,4.24,8.05,10.5,9.35,16.94,1.36,6.71,1.95,13.21,1.35,20.12Z"/>
      <path class="cls-1" d="M273.73,424.88c-3.7,3.97-6.44,8.18-9.39,12.69-1.66,2.54-1.07,5.92,1.34,7.76,13.09,10,28.17,19.01,43.18,25.18,3.82,1.57,7.78,3.03,11.91,3.1s8.49-1.48,10.84-4.88c3.03-4.4,1.81-10.67-1.42-14.92-3.23-4.25-8.06-6.94-12.74-9.52-4.94-2.72-9.45-5.22-14.39-7.94"/>
      <path class="cls-7" d="M168.69,63.09c2.41-.05,4.82-.24,7.21-.56,2.54-.34,3.68-1.02,5.76-2.52,.18-.13,.37-.26,.58-.29,.18-.03,.37,.02,.54,.07,1.46,.38,2.3,.81,3.76,.44,1.77-.45,3.51-1.15,5.21-1.82,3.32-1.31,6.54-2.89,9.61-4.73-.61-1.06-1.05-2.21-1.3-3.4-1.97,.79-3.85,1.25-5.86,1.74-.58,.14-5.54,3.07-5.38,3.2-.34-.29-.68-.58-1.02-.87-.09-.08-.18-.15-.3-.18-.12-.02-.24,.01-.35,.05-2.55,.81-5.62,1.08-8.28,1.38-3.21,.36-6.44,.53-9.67,.51"/>
      <path class="cls-6" d="M341.63,277.47c1.61,2.53,3.66,5.1,6.08,6.89,1.24,.91,2.5,1.89,4,2.31,3.56,1.01,7.06,.85,10.16-1.38,2.36-1.69,4.07-4.13,5.42-6.7,1.04-1.99,2.19-4.44,1.81-6.73-.34-2.06-1.4-3.9-3.14-5.07-.68-.46-1.45-.79-2.25-.98-.71-.17-1.56-.32-2.27-.07l-8.14,3.58c-.79,.99-1.37,2.19-1.41,3.46s.51,2.58,1.57,3.28c1.73,1.13,4.15,.26,5.61-1.21,1.68-1.7,2.56-4.14,2.35-6.52-.52-6-6.72-8.74-12.06-7.17l-4.74,8.09-2.98,8.22Z"/>
      <path class="cls-13" d="M158.82,343.35c2.99,19.23,7.56,38.2,13.65,56.68,3.03,9.17,6.44,18.21,10.2,27.11,.14,.33,.6,1.1,.43,1.35-.19,.27-1.1,.4-1.41,.51-1.16,.4-2.33,.79-3.51,1.16-2.35,.74-4.72,1.41-7.11,2.01-4.65,1.17-9.38,2.08-14.14,2.7-10.7,1.4-21.56,1.4-32.26,.05-1.85-.23-1.83,2.67,0,2.9,9.94,1.25,20.01,1.34,29.97,.23s19.85-3.17,29.13-6.72c2.19-.84,2.76-2.42,1.86-4.57-1-2.41-2.02-4.81-2.98-7.24-1.88-4.72-3.66-9.47-5.34-14.27-3.36-9.59-6.3-19.32-8.82-29.16-2.83-11.05-5.12-22.24-6.87-33.51-.29-1.84-3.08-1.06-2.8,.77h0Z"/>
      <path class="cls-7" d="M297.77,441.11s41.85-36.77,49.12-43.83l6.02-4.2c4.61-5.19,9.29-10.48,12.18-16.79,2.9-6.31,3.81-13.9,.75-20.13-2.88-5.89-8.32-10.47-13.88-13.94-32.47-20.24-66.49-36.93-98.96-57.17-27.98,16.75-61.25,21.95-93.59,26.2l-1.98-.52c6.21,72.14,35.15,150.28,78.22,208.48l23.06-8.6s-40.46-117.89-31.18-180.59l.48,3.36c26.33,17.22,49.41,29.7,78.9,40.7l-.41,1.74c-13.46,13.22-33.45,48.87-33.45,48.87l3.03,3.71c3.41,4.18,7.85,7.39,12.88,9.32l8.83,3.38Z"/>
      <path class="cls-6" d="M22.22,46.33c-3.62-4.54-8.43-7.77-13-11.25C6.28,32.84,.18,29.67,.75,25.24c.17-1.33,.94-2.49,1.7-3.59,1.55-2.24,3.17-4.42,4.86-6.55,3.29-4.14,6.9-8.13,11.4-10.91,4.81-2.98,11.64-5.24,16.5-1.63,5,3.73,7.66,9.4,8.35,15.53,.69,6.23-.07,13.61-1.64,19.65l-.49,8.28-12.5,11.99-6.69-11.68Z"/>
      <path class="cls-6" d="M270.52,205.11l-4.5-2.6c-12.35-14.17-23.03-29.8-36.22-43.19-11.31-11.48-24.97-21.42-40.37-25.64h0s0,0,0,0c-2.56-.7-5.16-1.25-7.81-1.62l-44.8,14.13-6.27-6.62c-3.4-3.28-14.61-14.13-20.08-20.15-15.22-16.74-32.46-40.75-46.41-58.53-4.11-5.24-8.18-10.51-12.19-15.82-2.08-2.75-3.08-5.67-6.77-5.43-2.76,.18-5.49,.8-8.08,1.8-5.26,2.04-11.07,7.47-14.15,12.21l2.83,3.69,20.19,27.72,4.76,6.53,72.17,99.07,.2,6.17s14.51,81.57,34.73,113.35l1.98,.52c32.34-4.25,65.7-8.85,93.69-25.6-6.36-19.18-12.55-39.21-18.6-59.29l-.46-.38,.27-.25c.06,.21,.13,.42,.19,.63l.72,.6,105.8,54.83,.1-.7c1.29-8.7,5.41-16.73,11.74-22.85l1.68-2.94c-19.41-10.01-84.33-49.65-84.33-49.65Z"/>
      <path class="cls-15" d="M136.57,150.52c1.29,3.6,4.73,6.15,8.09,7.97s7.22,2.6,11.05,2.68c6.83,.13,13.86-2.07,18.75-6.84,4.9-4.76,7.31-12.23,5.24-18.74-1.43,.81-3.38,.53-4.53-.64s-1.38-3.13-.54-4.54c-3.48-.27-7,.12-10.34,1.16,.62-.39,1.48-.05,1.91,.54s.54,1.35,.64,2.07c.16,1.19,.32,2.38,.48,3.57,.08,.63,.17,1.28-.02,1.88-.31,1.02-1.3,1.67-2.26,2.15-3.36,1.68-7.15,2.29-10.87,2.8-1.39,.19-2.81,.37-4.18,.09s-2.72-1.1-3.25-2.39c-.27-.66-.33-1.38-.56-2.06s-.73-1.34-1.43-1.43c-.46-.06-.9,.14-1.32,.34-1.01,.48-1.99,1.02-2.94,1.6-1.18,.72-2.47,2.04-1.85,3.28,.28,.57,.91,.9,1.24,1.45,.49,.8,.22,1.9-.4,2.61s-1.49,1.14-2.34,1.55"/>
      <path class="cls-5" d="M143.35,130.67c1.01,4.09,2.04,8.2,3.72,12.05,.13,.29,.26,.58,.51,.78,.26,.2,.6,.25,.92,.3,2.65,.37,5.31,.75,7.98,.67s5.38-.65,7.67-2.03c1-.61,1.91-1.36,2.8-2.12,.24-.2,.49-.42,.63-.7,.26-.53,.11-1.16-.06-1.73-1.19-4.12-2.37-8.23-3.56-12.35-4.84,2.91-10.45,4.24-16.02,5.17-1.48,.25-2.98,.47-4.4,.98"/>
      <path class="cls-5" d="M112.21,101.35c-4.09,2.11-9.11,.5-11.21-3.58-2.11-4.09-.5-9.11,3.58-11.21l3.82-1.97"/>
      <path class="cls-5" d="M168.28,68.36c4.48-1.03,8.95,1.77,9.98,6.25s-1.77,8.95-6.25,9.98"/>
      <path class="cls-5" d="M102.02,68.23l13.65,42.88c5.24,15.84,22.33,24.43,38.17,19.19h0c9.19-3.04,15.93-10.06,18.96-18.52l1.4-5.45c.73-4.61,.4-9.46-1.17-14.2l-5.37-23.88-10.48-25.13-27.63-1"/>
      <path class="cls-3" d="M174.29,105.94l-1.39,5.45c-1.51,4.22-3.96,8.1-7.17,11.29-3.21,3.19-7.2,5.71-11.79,7.23-9.33,3.09-19.09,1.38-26.61-3.79,5.98,2.01,12.64,2.17,19.1,.04,4.59-1.52,8.58-4.04,11.79-7.23,3.21-3.19,5.65-7.06,7.17-11.29l1.4-5.45c.73-4.61,.4-9.46-1.17-14.2l-5.37-23.88-9.01-21.6,6.04,.22,10.48,25.13,5.37,23.88c1.57,4.74,1.9,9.59,1.16,14.2Z"/>
      <path class="cls-27" d="M165.98,40.42c1.93,3.87,2.68,8.12,2.78,12.42s-.61,8.59-.71,12.91c-.01,.53-.1,1.18-.59,1.39-.53,.23-1.09-.24-1.43-.71-2.11-2.85-2.2-6.6-3.87-9.66-.84-1.53-1.76-2.12-3.34-2.84-1.32-.6-2.77-1.21-3.52-2.53-.71-1.26-1.04-3.25-2.48-3.21-.85,.03-1.3,.81-1.95,1.22-.48,.3-1.01,.45-1.49,.76-1.58,1.03-3.11,2.14-4.7,3.17-3.51,2.29-7.22,4.34-11.17,5.71-12.02,4.16-24.26,8.37-36.98,8.75-1.77,.05-3.97-.24-4.6-1.9-.23-.6-.19-1.26-.13-1.89,.33-3.44,1.49-6.51,2.43-9.79l-4.11,1.37c-.27,.09-.63,.16-.81-.07-.13-.16-.09-.4-.04-.6,.18-.76,.4-1.52,.67-2.25,.25-.68,.64-1.33,.77-2.04,.26-1.43,1.04-2.7,1.89-3.87,1.84-2.54,4.32-4.53,6.85-6.38,3.88-2.84,8.38-5.53,13.16-5-1.9-2.66-4.78-4.58-7.9-5.52,.6-.69,1.5-1.03,2.36-1.32,5.84-1.96,11.96-2.56,18.07-2.89,7.66-.41,15.47-.56,22.87,1.45s14.46,6.49,17.96,13.32Z"/>
      <path class="cls-28" d="M104.34,74.87c1.13,6.01,3.13,11.86,5.94,17.29,7.35,1.16,14.66-1.7,21.96-3.15,2.38-.47,4.79-.8,7.13-1.43,2.52-.69,4.93-1.73,7.33-2.77,2.79-1.21,5.58-2.42,8.36-3.62,4.56-1.98,9.15-3.97,13.28-6.72-.18-1.73-.35-3.47-.53-5.2-.05-.45-.1-.91-.34-1.28-.28-.43-.77-.67-1.19-.99-2.56-1.95-1.63-6.18-3.47-8.83-3.73,.55-7.03,2.63-10.39,4.35-5.95,3.04-12.37,5.04-18.75,7.02-1.41,.44-1.73,1.19-3.18,1.44-1.54,.27-3.88,1.29-5.43,1.52-3.25,.48-5.26,.94-9.79,1.38-3.27,.32-6.53,1.54-9.7,.71"/>
      <circle class="cls-8" cx="143.06" cy="73.7" r="5.39"/>
      <circle class="cls-8" cx="121.79" cy="79.55" r="5.39"/>
      <path class="cls-28" d="M334.9,331.38c-20.99-12.34-42.42-23.9-63.42-36.22-6.01-3.53-11.99-7.12-17.9-10.81-.79-.49-1.52,.76-.73,1.25,20.7,12.89,42.09,24.59,63.29,36.63,6.03,3.43,12.05,6.88,18.03,10.4,.81,.47,1.54-.78,.73-1.25h0Z"/>
      <path class="cls-28" d="M353.53,392.92c6.79-7.65,13.95-15.94,14.94-26.57,.46-4.9-.61-9.87-3.49-13.91s-6.66-6.69-10.6-9.23c-5.55-3.57-11.23-6.95-16.91-10.32-.8-.48-1.53,.78-.73,1.25,4.82,2.85,9.61,5.75,14.36,8.71,3.91,2.44,7.91,4.93,11.04,8.36,7.05,7.72,5.73,18.6,.85,27.1-2.86,4.98-6.69,9.3-10.48,13.57-.62,.7,.4,1.72,1.03,1.03h0Z"/>
      <path class="cls-28" d="M132.76,88.17c-.36,1.34-.52,2.73-.46,4.11,.02,.38,.32,.74,.72,.72,.38-.02,.74-.32,.72-.72-.03-.65,0-1.3,.06-1.94,0-.07,.02-.15,.03-.22-.02,.13,.01-.08,.02-.1,.03-.17,.06-.34,.09-.52,.06-.32,.14-.63,.22-.95,.1-.37-.12-.8-.51-.89s-.79,.11-.89,.51h0Z"/>
      <path class="cls-28" d="M132.7,94.51c.23,.82,.54,1.62,.9,2.4,.33,.71,.71,1.53,1.29,2.07,.69,.65,1.61,.65,2.47,.39s1.65-.57,2.47-.86c.37-.13,.62-.5,.51-.89-.1-.36-.52-.64-.89-.51-.72,.25-1.44,.51-2.16,.75-.51,.18-1.1,.43-1.5-.06s-.68-1.12-.95-1.69c-.3-.64-.54-1.32-.73-2-.25-.9-1.65-.52-1.4,.39h0Z"/>
      <path class="cls-28" d="M133.63,108.28c2.89,.77,6.05,.14,8.5-1.56s4.09-4.15,5.07-6.89c.31-.88-1.09-1.26-1.4-.39-1.71,4.8-6.44,8.87-11.79,7.44-.9-.24-1.29,1.16-.39,1.4h0Z"/>
      <path class="cls-28" d="M94.61,399.14c-.57,4.39-1.51,8.88-1.33,13.32,.16,3.94,1.06,7.81,1.35,11.74,.08,1.05,.11,2.1,.09,3.15-.02,.86-.13,1.75,.06,2.6,.35,1.52,1.64,2.3,3,2.82,3.8,1.46,7.83,2.49,11.79,3.39,16.34,3.75,33.66,4.51,50.22,1.84,9.4-1.52,18.57-4.2,27.34-7.91,.86-.36,.12-1.61-.73-1.25-15.04,6.38-31.25,9.41-47.57,9.25-8.1-.08-16.21-.83-24.17-2.33-3.88-.73-7.72-1.64-11.5-2.76-1.81-.54-3.78-1.01-5.49-1.83-1.05-.51-1.53-1.19-1.55-2.35-.02-1.02,.07-2.04,.04-3.06-.13-4.18-1.11-8.26-1.38-12.42-.31-4.74,.68-9.51,1.28-14.19,.12-.92-1.33-.91-1.45,0h0Z"/>
      <path class="cls-28" d="M99.15,355.37c-.83,12.64-2.19,25.23-3.77,37.8-.12,.92,1.33,.91,1.45,0,1.59-12.56,2.94-25.16,3.77-37.8,.06-.93-1.39-.93-1.45,0h0Z"/>
      <path class="cls-28" d="M108.6,229.67c-3.38,15.43-5.21,31.05-6.7,46.76-.75,7.9-1.45,15.8-2.32,23.69s-.07,15.49,.28,23.31c.39,8.9,.07,17.86-.39,26.75-.05,.93,1.4,.93,1.45,0,.42-7.94,.63-15.89,.49-23.84s-1.3-15.53-.67-23.3,1.57-15.44,2.29-23.16,1.48-15.78,2.47-23.65c1.1-8.79,2.62-17.53,4.51-26.18,.2-.91-1.2-1.3-1.4-.39h0Z"/>
      <path class="cls-28" d="M118.91,187.38c-3.97,12.56-6.43,25.51-9.52,38.3-.22,.91,1.18,1.29,1.4,.39,3.1-12.79,5.55-25.74,9.52-38.3,.28-.89-1.12-1.27-1.4-.39h0Z"/>
      <path class="cls-28" d="M281.51,250.77c3.48,9.52,8.46,18.51,13.31,27.38,5.46,9.99,11.14,19.87,16.29,30.03,2.43,4.8,4.79,9.67,6.64,14.73,.32,.87,1.72,.49,1.4-.39-3.48-9.52-8.46-18.51-13.31-27.38-5.46-9.99-11.14-19.87-16.29-30.03-2.43-4.8-4.79-9.67-6.64-14.73-.32-.87-1.72-.49-1.4,.39h0Z"/>
      <path class="cls-28" d="M166.72,131.84c2.85-.56,5.75-.72,8.65-.51,.93,.07,.93-1.38,0-1.45-3.02-.23-6.06-.03-9.03,.56-.91,.18-.53,1.58,.39,1.4h0Z"/>
      <path class="cls-28" d="M243.48,549.52c3.61,4.15,8.08,8.05,13.15,10.3,3.47,1.54,7.85,2.53,11.4,.68,4.78-2.49,5.06-8.96,5.25-13.67,.26-6.38-.39-12.98-1.95-19.17s-4.48-11.52-9.14-15.53c-.7-.61-1.73,.42-1.03,1.03,8.36,7.18,10.42,18.95,10.7,29.44,.08,3.03,0,6.12-.43,9.13-.33,2.32-.96,4.83-2.71,6.51-2.85,2.73-7.39,1.93-10.7,.61-5.25-2.08-9.85-6.14-13.51-10.35-.61-.71-1.64,.32-1.03,1.03h0Z"/>
      <path class="cls-28" d="M232.32,520.11c.05,9.69,3.37,19.13,9.14,26.9,.55,.74,1.81,.02,1.25-.73-5.62-7.57-8.9-16.71-8.94-26.16,0-.93-1.45-.93-1.45,0h0Z"/>
      <path class="cls-28" d="M301.19,449.72c.04-4.24,1.61-8.38,4.4-11.57,.61-.7-.41-1.73-1.03-1.03-3.05,3.48-4.78,7.96-4.83,12.59,0,.93,1.44,.93,1.45,0h0Z"/>
      <path class="cls-28" d="M235.25,530.23c4.58-1.83,9.16-3.65,13.74-5.48,.86-.34,.48-1.74-.39-1.4-4.58,1.83-9.16,3.65-13.74,5.48-.86,.34-.48,1.74,.39,1.4h0Z"/>
      <path class="cls-28" d="M236.03,534.75c2.95-1.13,5.86-2.36,8.72-3.68,.36-.16,.44-.68,.26-.99-.21-.36-.64-.43-.99-.26-2.75,1.27-5.55,2.45-8.38,3.53-.37,.14-.62,.49-.51,.89,.1,.35,.52,.65,.89,.51h0Z"/>
      <path class="cls-28" d="M237.87,538.81l4.36-1.9c.35-.15,.45-.69,.26-.99-.23-.36-.62-.42-.99-.26l-4.36,1.9c-.35,.15-.45,.69-.26,.99,.23,.36,.62,.42,.99,.26h0Z"/>
      <path class="cls-28" d="M308.2,439.54c-3.53,3.78-5.07,9.08-4.16,14.16,.16,.92,1.56,.53,1.4-.39-.82-4.55,.63-9.38,3.78-12.75,.64-.68-.39-1.71-1.03-1.03h0Z"/>
      <path class="cls-28" d="M312.47,441.68c-2.34,2.38-3.79,5.47-4.2,8.77-.05,.39,.37,.72,.72,.72,.43,0,.68-.33,.72-.72,.36-2.91,1.72-5.66,3.77-7.75,.65-.67-.37-1.69-1.03-1.03h0Z"/>
      <path class="cls-28" d="M252.91,295.99c5.72,4.46,13.98,3.79,18.77-1.74,.61-.7-.41-1.73-1.03-1.03-4.22,4.87-11.58,5.73-16.72,1.74-.73-.57-1.76,.45-1.03,1.03h0Z"/>
      <path class="cls-28" d="M142.66,132.28c1.25,3.83,2.5,7.66,3.75,11.5,.29,.88,1.69,.51,1.4-.39-1.25-3.83-2.5-7.66-3.75-11.5-.29-.88-1.69-.51-1.4,.39h0Z"/>
      <path class="cls-28" d="M166.97,68.52c1.77,7.85,3.38,15.75,5.3,23.56,.37,1.49,.85,2.94,1.13,4.46,.58,3.19,.59,6.47,.11,9.67-.14,.91,1.26,1.31,1.4,.39,.4-2.63,.51-5.28,.24-7.94-.23-2.3-.84-4.44-1.41-6.66-.32-1.24-.56-2.51-.85-3.76-1.18-5.25-2.36-10.51-3.55-15.76-.33-1.45-.65-2.89-.98-4.34-.2-.91-1.6-.52-1.4,.39h0Z"/>
      <path class="cls-28" d="M168.47,69.06c4.06-.87,8.16,1.68,9.08,5.74s-1.73,8.1-5.74,9.08c-.91,.22-.52,1.62,.39,1.4,3.64-.89,6.43-3.92,6.92-7.66s-1.48-7.5-4.85-9.21c-1.93-.98-4.08-1.21-6.18-.76-.91,.2-.53,1.59,.39,1.4h0Z"/>
      <path class="cls-28" d="M110.03,93.41c3.74,.03,7.53-.46,11.22-1.01,9.53-1.42,18.88-4,27.85-7.49,6.86-2.66,13.49-5.86,19.86-9.54,.81-.47,.08-1.72-.73-1.25-16.53,9.55-35.42,16.31-54.58,17.69-1.21,.09-2.42,.17-3.63,.16-.93,0-.93,1.44,0,1.45h0Z"/>
      <path class="cls-28" d="M104.55,75.73c3.65,.09,7.36-.36,10.97-.87,9.39-1.32,18.61-3.84,27.45-7.25,6.83-2.64,13.43-5.83,19.77-9.49,.81-.47,.08-1.72-.73-1.25-16.31,9.42-34.99,16.18-53.92,17.31-1.18,.07-2.36,.13-3.54,.1-.93-.02-.93,1.43,0,1.45h0Z"/>
      <path class="cls-28" d="M155.63,29.43c.97-.99,1.93-1.98,2.9-2.97,.26-.27,.29-.76,0-1.03s-.74-.29-1.03,0c-.97,.99-1.93,1.98-2.9,2.97-.26,.27-.29,.76,0,1.03s.74,.29,1.03,0h0Z"/>
      <path class="cls-28" d="M105.05,95.16c-.66-1.13-.48-2.56,.26-3.61s2.02-1.62,3.28-1.79c.39-.05,.6-.55,.51-.89-.12-.42-.5-.56-.89-.51-1.67,.23-3.26,1.13-4.2,2.54s-1.09,3.46-.2,4.99c.47,.81,1.72,.08,1.25-.73h0Z"/>
      <path class="cls-28" d="M169.16,72.77c1.09-.23,2.35-.25,3.33,.23,.44,.21,.8,.47,1.13,.83,.16,.18,.28,.34,.4,.56,.03,.06,.1,.2,.11,.22,.02,.06,.03,.16,.07,.21,.04,.05-.03,.1,.05-.07-.17,.35-.1,.78,.26,.99,.32,.19,.82,.09,.99-.26,.35-.74-.03-1.57-.47-2.19-.42-.58-.95-1.07-1.58-1.42-1.43-.8-3.12-.83-4.69-.5-.38,.08-.61,.53-.51,.89,.11,.4,.51,.59,.89,.51h0Z"/>
      <path class="cls-28" d="M174.44,78.39c.93,0,.93-1.45,0-1.45s-.93,1.45,0,1.45h0Z"/>
      <path class="cls-28" d="M168.69,63.37c3.01-.08,6.33-.1,9.24-.95,1.07-.31,2.04-.83,2.97-1.44,.61-.4,1.14-.96,1.9-.88,.68,.08,1.33,.41,2.01,.5,1.27,.17,2.49-.24,3.68-.64,1.53-.51,3.04-1.11,4.53-1.73,3-1.25,5.91-2.7,8.7-4.36,.34-.2,.45-.65,.26-.99-.57-1.03-.97-2.09-1.23-3.23-.08-.35-.54-.64-.89-.51-2.64,1.03-5.43,1.38-7.9,2.78-.91,.52-1.82,1.05-2.7,1.62-.41,.26-1.22,.65-1.17,1.24l1.24-.51c-.44-.38-1.04-1.08-1.63-1.24s-1.34,.24-1.92,.38c-1.73,.43-3.5,.64-5.27,.84-3.76,.42-7.52,.7-11.31,.69-.93,0-.93,1.45,0,1.45,3.51,.01,6.99-.21,10.48-.6,1.47-.16,2.95-.32,4.42-.56,.69-.12,1.39-.25,2.07-.42,.22-.06,.96-.36,1.18-.33,.29,.05,.76,.64,.96,.81,.43,.37,1.29,.16,1.24-.51,.04,.5-.27,.49,.3,.11,.33-.22,.67-.43,1-.63,.78-.48,1.57-.94,2.37-1.38,2.16-1.19,4.74-1.45,7.04-2.35l-.89-.51c.29,1.26,.75,2.44,1.38,3.58l.26-.99c-2.75,1.63-5.61,3.09-8.57,4.31-2.66,1.1-5.74,2.77-8.64,1.95-1.2-.34-1.79-.42-2.83,.31-.93,.65-1.86,1.3-2.94,1.68-2.86,1.02-6.32,.98-9.33,1.05-.93,.02-.93,1.47,0,1.45h0Z"/>
      <path class="cls-28" d="M341.58,281.68l1.51-.71c.16-.07,.29-.27,.33-.43,.05-.17,.03-.4-.07-.56s-.25-.29-.43-.33l-.19-.03c-.13,0-.25,.03-.37,.1l-1.51,.71c-.16,.07-.29,.27-.33,.43-.05,.17-.03,.4,.07,.56s.25,.29,.43,.33l.19,.03c.13,0,.25-.03,.37-.1h0Z"/>
      <path class="cls-28" d="M353.96,254.66c0,1.88,.1,3.76,.29,5.64,.04,.39,.31,.72,.72,.72,.36,0,.76-.33,.72-.72-.19-1.87-.28-3.75-.29-5.64,0-.93-1.45-.93-1.45,0h0Z"/>
      <path class="cls-28" d="M294.43,224.27c7.13,4.42,14.26,8.83,21.38,13.25,1.01,.63,2.02,1.25,3.03,1.88,.6,.37,1.14-.57,.55-.94-7.13-4.42-14.26-8.83-21.38-13.25-1.01-.63-2.02-1.25-3.03-1.88-.6-.37-1.14,.57-.55,.94h0Z"/>
      <path class="cls-28" d="M216.95,484.02c2.91,5.66,6.23,11.09,9.95,16.26,.41,.56,1.35,.02,.94-.55-3.72-5.17-7.04-10.6-9.95-16.26-.32-.62-1.26-.07-.94,.55h0Z"/>
      <path class="cls-28" d="M229.25,503.26c.7,0,.7-1.09,0-1.09s-.7,1.09,0,1.09h0Z"/>
      <path class="cls-6" d="M31.01,15.73c-1.12,1.58-1.42,3.52-1.5,5.41-.13,3.17,.33,6.52,2.23,9.05s5.58,3.92,8.39,2.46c1.46-.76,2.5-2.16,3.11-3.68s.82-3.17,.93-4.81"/>
      <path class="cls-28" d="M337.49,278.33c.66-7.92,4.05-15.46,9.52-21.22,.64-.68-.38-1.7-1.03-1.03-5.74,6.05-9.25,13.93-9.94,22.24-.08,.93,1.37,.92,1.45,0h0Z"/>
      <path class="cls-28" d="M348.59,255.36c.93,0,.93-1.45,0-1.45s-.93,1.45,0,1.45h0Z"/>
      <g>
        <path class="cls-28" d="M107.65,434.37c.03-18.4,.56-36.79,1.6-55.16,.05-.93-1.4-.93-1.45,0-1.04,18.37-1.57,36.76-1.6,55.16,0,.93,1.45,.93,1.45,0h0Z"/>
        <path class="cls-28" d="M114.51,435.46c0-4.6-.12-9.21,.02-13.8s.52-9.19,.78-13.78c.05-.93-1.4-.93-1.45,0-.26,4.59-.65,9.18-.78,13.78s-.01,9.2-.02,13.8c0,.93,1.45,.93,1.45,0h0Z"/>
      </g>
      <g>
        <path class="cls-28" d="M258.66,406.37c-3.1-13.06-5.75-26.23-8.28-39.4-.21-1.09-.42-2.18-.62-3.27-.17-.92-1.57-.53-1.4,.39,1.89,10.09,3.92,20.15,6.08,30.18,.9,4.17,1.83,8.34,2.82,12.5,.22,.91,1.61,.52,1.4-.39h0Z"/>
        <path class="cls-28" d="M265.2,404.01c-1.06-4.47-2.25-8.93-3.19-13.43s-1.63-9.06-2.44-13.58c-.16-.92-1.56-.53-1.4,.39,.81,4.52,1.5,9.08,2.44,13.58s2.13,8.96,3.19,13.43c.22,.91,1.61,.52,1.4-.39h0Z"/>
      </g>
      <path class="cls-28" d="M169.44,55.66c7.99-.96,14.99-5.07,21.53-9.53,.77-.52,.04-1.78-.73-1.25-6.29,4.28-13.09,8.4-20.8,9.33-.92,.11-.93,1.56,0,1.45h0Z"/>
      <path class="cls-28" d="M168.5,63.34c4.17,1.38,8.83,1.53,13.18,1.54,5.34,.02,10.77-.39,15.98-1.61,2.3-.54,4.61-1.25,6.66-2.45,.8-.47,.08-1.73-.73-1.25-2.32,1.36-5,2.06-7.61,2.59-3.25,.66-6.56,1-9.86,1.17-5.6,.28-11.83,.4-17.23-1.38-.89-.29-1.27,1.11-.39,1.4h0Z"/>
      <circle class="cls-28" cx="118.77" cy="78.06" r="3.14"/>
      <circle class="cls-28" cx="140.15" cy="72.62" r="3.14"/>
      <path class="cls-28" d="M169.65,58.83c3.33,.2,6.67-.08,9.92-.82,.68-.16,.39-1.2-.29-1.05-3.16,.72-6.39,.97-9.63,.78-.7-.04-.7,1.04,0,1.09h0Z"/>
      <path class="cls-28" d="M107.93,42.12c1.43-1.38,2.94-2.67,4.52-3.87,.23-.18,.36-.47,.2-.74-.14-.23-.51-.37-.74-.2-1.66,1.25-3.25,2.59-4.74,4.04-.5,.49,.27,1.26,.77,.77h0Z"/>
      <path class="cls-28" d="M110.73,42.64c1.58-1.45,3.22-2.84,4.92-4.14,.23-.18,.36-.47,.2-.74-.13-.23-.51-.37-.74-.2-1.78,1.36-3.49,2.79-5.14,4.31-.52,.48,.25,1.24,.77,.77h0Z"/>
      <text class="cls-9" transform="translate(156.89 233.81) rotate(-13.85)"><tspan x="0" y="0">AI</tspan></text>
      <path class="cls-25" d="M140.49,50.7c-2.98,1.41-5.94,2.86-8.94,4.21s-6.34,2.37-9.59,3.29c-6.56,1.86-13.23,3.34-19.96,4.46-1.84,.31-1.06,3.1,.77,2.8,6.89-1.15,13.71-2.67,20.42-4.59,3.2-.92,6.36-1.91,9.41-3.26s6.24-2.92,9.35-4.4c1.69-.8,.22-3.3-1.46-2.5h0Z"/>
      <path class="cls-25" d="M155.22,51.02c.46,1.36,1.3,2.54,2.59,3.23s3.22,.56,4.18,1.76,1.44,2.95,1.95,4.36c.64,1.77,1.18,3.57,1.63,5.39,.42,1.7,2.68,1.15,2.85-.39,.57-5.27,.92-10.7,.41-15.99-.45-4.74-1.82-9.3-4.9-13.01-1.19-1.44-3.23,.62-2.05,2.05,2.86,3.45,3.89,7.97,4.16,12.35,.3,4.85,0,9.77-.52,14.6l2.85-.39c-.82-3.31-1.84-6.81-3.48-9.81-.68-1.25-1.66-2.2-3.02-2.69-1.5-.54-3.24-.48-3.84-2.25s-3.39-1-2.8,.77h0Z"/>
      <path class="cls-29" d="M107.72,31.29c1.71-.93,3.88-1.18,5.77-1.57s3.65-.69,5.49-.93c3.84-.5,7.72-.68,11.59-.67,1.87,0,1.87-2.89,0-2.9-4.15-.02-8.28,.21-12.4,.77-1.98,.27-3.94,.61-5.89,1.01s-4.19,.77-6.03,1.77c-1.64,.89-.18,3.4,1.46,2.5h0Z"/>
      <path class="cls-29" d="M91.08,55.55c3.01-8.84,10.81-14.52,19.43-17.29,1.77-.57,1.01-3.37-.77-2.8-9.64,3.1-18.11,9.48-21.46,19.32-.6,1.77,2.2,2.53,2.8,.77h0Z"/>
      <path class="cls-29" d="M137.04,28.61c4.4,.04,8.72,.86,12.84,2.4,.73,.27,1.59-.31,1.78-1.01,.22-.81-.28-1.51-1.01-1.78-4.35-1.62-8.97-2.46-13.61-2.5-1.87-.02-1.87,2.88,0,2.9h0Z"/>
      <path class="cls-30" d="M124.21,37.87c.7,.1,1.44-.29,1.75-.93,.07-.15,.12-.32,.14-.49,.48,.12,1,.09,1.49-.1,.26-.1,.51-.25,.74-.4,.46,.07,.93,.1,1.39,.04,.82-.11,1.64-.57,1.95-1.33,.15-.38,.17-.8,.11-1.21-.14-.93-.7-1.79-1.5-2.29s-1.82-.64-2.72-.36c-.37,.11-.72,.29-1.05,.5-.8,.51-1.51,1.24-1.73,2.17-.01,.06-.02,.11-.03,.17-.24,.03-.49,.09-.72,.17-.79,.3-1.46,1.03-1.51,1.87-.02,.32,.04,.63,.17,.93,.26,.63,.83,1.16,1.51,1.26Z"/>
      <ellipse class="cls-29" cx="121.05" cy="31.69" rx="1.25" ry="1.02"/>
      <path class="cls-8" d="M94.5,50.13c.93,0,.93-1.45,0-1.45s-.93,1.45,0,1.45h0Z"/>
      <path class="cls-8" d="M97.65,46.55c1.56-1.48,3.33-2.69,5.26-3.63,.35-.17,.45-.67,.26-.99-.21-.36-.64-.43-.99-.26-2.04,.99-3.91,2.3-5.56,3.86-.28,.27-.27,.75,0,1.03s.74,.27,1.03,0h0Z"/>
      <path class="cls-3" d="M104.28,69.27c7.43-.79,14.58-2.96,21.61-5.43s13.42-5.02,19.39-8.99c.77-.51,.05-1.77-.73-1.25-5.87,3.91-12.42,6.51-19.04,8.84s-13.93,4.6-21.23,5.38c-.92,.1-.93,1.55,0,1.45h0Z"/>
      <g>
        <path class="cls-28" d="M153.8,49.57c.27,1.98,1.42,3.77,3.1,4.86,.97,.62,2.1,.78,3.11,1.3,.93,.48,1.57,1.3,2.04,2.21,1.81,3.49,1.22,8.17,4.86,10.59,.78,.52,1.51-.74,.73-1.25-1.67-1.11-2.3-3.1-2.75-4.95s-.79-3.68-1.71-5.35-2.35-2.54-4.18-3.17c-2.09-.72-3.5-2.43-3.8-4.62-.12-.92-1.52-.53-1.4,.39h0Z"/>
        <g>
          <path class="cls-28" d="M135.61,26.05c8.38,.37,16.66,1.85,23.58,6.9,2.98,2.17,5.58,5,7.06,8.41,1.62,3.73,1.65,8.06,1.75,12.06,.12,4.9-.04,9.9-1.03,14.72-.19,.91,1.21,1.3,1.4,.39,.92-4.49,1.14-9.13,1.1-13.7-.04-4.19,0-8.83-1.42-12.82-2.64-7.47-9.8-12.33-16.98-14.87-4.96-1.76-10.23-2.29-15.46-2.52-.93-.04-.93,1.41,0,1.45h0Z"/>
          <path class="cls-28" d="M96.91,43.81c4.54-4.44,10.29-7.44,16.6-8.33,.52-.07,.72-.89,.32-1.21-3-2.46-6.51-4.11-10.33-4.76l.17,1.33c4.09-1.93,8.57-2.88,13.02-3.54,4.85-.73,9.75-1.23,14.66-1.29,.93-.01,.93-1.46,0-1.45-5.04,.06-10.06,.6-15.05,1.35-4.59,.69-9.16,1.7-13.37,3.69-.54,.26-.43,1.22,.17,1.33,3.57,.61,6.89,2.09,9.69,4.39l.32-1.21c-6.54,.93-12.53,4.1-17.24,8.71-.67,.65,.36,1.68,1.03,1.03h0Z"/>
          <path class="cls-28" d="M151.08,47.78c-7.85,6.47-17.17,10.79-26.76,13.98-4.95,1.64-10,3.09-15.1,4.18-2.75,.58-5.54,1.03-8.34,1.2-1.93,.12-4.04,.27-5.97,0-.86-.12-1.89-.36-2.39-1.15-.67-1.06-.41-2.91-.22-4.08,.46-2.81,1.69-5.45,3.16-7.87,.45-.73-.54-1.4-1.14-.88,.12-.11-.53,.29-.67,.37-.48,.27-.97,.53-1.46,.8-.58,.31-1.56,1.05-2.18,1.06-.52,.01-.2,.16-.29-.15-.06-.2,.21-.67,.28-.86,.32-.84,.68-1.67,1.08-2.48,.93-1.9,2.08-3.7,3.39-5.37,.57-.73-.45-1.76-1.03-1.03-1.66,2.11-3.09,4.38-4.16,6.85-.46,1.06-1.81,3.34-.43,4.25,1.08,.71,2.35-.11,3.31-.61,1.03-.54,2.3-1.03,3.19-1.8l-1.14-.88c-1.39,2.28-2.57,4.77-3.15,7.39-.41,1.86-.85,4.56,.35,6.23,1.02,1.42,2.95,1.68,4.57,1.75,2.5,.11,5.04-.03,7.53-.32,5.88-.69,11.65-2.26,17.31-3.97,5.33-1.61,10.58-3.49,15.63-5.84,5.6-2.6,10.9-5.81,15.67-9.74,.72-.59-.31-1.61-1.03-1.03h0Z"/>
          <path class="cls-28" d="M155.48,28.37c-.21-.59-.38-1.2-.51-1.82-.03-.15-.06-.3-.09-.46-.01-.07-.02-.14-.03-.21,0-.05-.01-.09-.02-.14,0,.06,0,.07,0,.02-.04-.32-.07-.64-.09-.96-.02-.38-.32-.74-.72-.72-.37,.02-.75,.32-.72,.72,.08,1.35,.33,2.68,.79,3.95,.13,.36,.5,.63,.89,.51,.35-.11,.64-.51,.51-.89h0Z"/>
          <path class="cls-28" d="M101.35,63.43c13.92-1.4,27.46-5.52,39.78-12.14,.82-.44,.09-1.69-.73-1.25-12.09,6.5-25.39,10.58-39.05,11.94-.92,.09-.93,1.54,0,1.45h0Z"/>
          <path class="cls-28" d="M143.1,49.74c.93,0,.93-1.45,0-1.45s-.93,1.45,0,1.45h0Z"/>
        </g>
      </g>
      <path class="cls-3" d="M102.93,99.61c2.19,2.46,5.96,3.38,9.03,2.19,.1-.04,.21-.09,.25-.2,.02-.07,0-.15-.02-.22-.32-1.09-.65-2.18-.97-3.28-.8,.91-2.1,1.19-3.31,1.31-1.7,.17-3.43,.13-5.12-.13"/>
      <path class="cls-28" d="M111.85,100.72c-3.72,1.86-8.31,.38-10.22-3.32s-.32-8.29,3.32-10.22c.82-.44,.09-1.69-.73-1.25-3.31,1.76-5.27,5.42-4.79,9.15s3.31,6.89,7,7.7c2.1,.46,4.24,.15,6.16-.81,.83-.42,.1-1.67-.73-1.25h0Z"/>
      <path class="cls-8" d="M106.01,72.31c1.54,0,3.07-.21,4.56-.6,.37-.1,.63-.52,.51-.89s-.5-.61-.89-.51c-1.42,.37-2.71,.54-4.17,.54-.38,0-.74,.33-.72,.72s.32,.73,.72,.72h0Z"/>
      <path class="cls-8" d="M112.84,71.38c.93,0,.93-1.45,0-1.45s-.93,1.45,0,1.45h0Z"/>
      <path class="cls-3" d="M144.77,132.56c6.8,1.39,13.96,.93,20.52-1.33-.74-1.97-1.48-3.95-2.21-5.92-5.03,3.95-11.37,6.21-17.76,6.33"/>
      <path class="cls-28" d="M163.24,125.6c.96,3.53,1.91,7.05,2.87,10.58,.14,.5,.27,1.01,.41,1.51,.24,.9,1.64,.52,1.4-.39-.96-3.53-1.91-7.05-2.87-10.58-.14-.5-.27-1.01-.41-1.51-.24-.9-1.64-.52-1.4,.39h0Z"/>
      <path class="cls-28" d="M172.11,111.66c-3.97,10.9-14.16,18.69-25.77,19.46-10.68,.71-21.21-4.61-26.92-13.69-2.7-4.3-3.95-9.31-5.48-14.1l-6.65-20.9c-1.52-4.77-3.04-9.55-4.56-14.32-.28-.89-1.68-.51-1.4,.39,3.66,11.49,7.31,22.98,10.97,34.47,1.57,4.92,2.84,10.16,5.51,14.62,5.51,9.22,15.75,15.04,26.49,15.06,13.05,.02,24.76-8.39,29.21-20.59,.32-.88-1.08-1.26-1.4-.39h0Z"/>
      <path class="cls-32" d="M147.19,145.53c4.06,1.35,8.31,1.69,12.48,.63,3.63-.92,7.93-2.56,10.22-5.67,.55-.75-.7-1.48-1.25-.73-1.13,1.53-2.82,2.44-4.51,3.23s-3.39,1.43-5.18,1.85c-3.83,.91-7.67,.53-11.38-.71-.89-.3-1.27,1.1-.39,1.4h0Z"/>
      <path class="cls-13" d="M145.58,155.97c11.93,5.91,29.19-.3,32.09-13.94,.39-1.82-2.41-2.6-2.8-.77-1.16,5.47-5.09,9.86-10.15,12.11-5.32,2.37-12.39,2.71-17.68,.09-1.67-.83-3.14,1.68-1.46,2.5h0Z"/>
      <path class="cls-28" d="M150.71,155.24c10.44,2.25,23.56-2.8,25.44-14.38,.15-.91-1.25-1.31-1.4-.39-1.74,10.78-13.92,15.46-23.65,13.37-.91-.2-1.3,1.2-.39,1.4h0Z"/>
      <path class="cls-28" d="M145.69,152.78c.78,.69,1.67,1.25,2.62,1.66,.19,.08,.35,.13,.56,.07,.17-.05,.35-.18,.43-.33,.09-.17,.13-.37,.07-.56-.05-.17-.16-.36-.33-.43-.44-.19-.87-.41-1.28-.66-.2-.12-.4-.26-.59-.4-.05-.03-.09-.07-.14-.1,.02,.02,.12,.09,.04,.03-.02-.02-.05-.04-.07-.05-.1-.08-.2-.17-.3-.25-.28-.25-.75-.3-1.03,0-.25,.27-.3,.76,0,1.03h0Z"/>
      <path class="cls-28" d="M146.86,144.32c7.75,2.75,16.76,.73,22.63-5,.67-.65-.36-1.68-1.03-1.03-5.52,5.4-13.95,7.21-21.21,4.63-.88-.31-1.26,1.09-.39,1.4h0Z"/>
      <path class="cls-16" d="M140.01,147.98c.72-.45,1.48-.95,1.83-1.72,.35-.76,.25-1.65,.07-2.48-.03-.16-.07-.32-.04-.48,.07-.37,.44-.58,.74-.81,.76-.6,1.12-1.67,.88-2.62-.03-.11-.07-.23-.17-.3-.13-.09-.31-.04-.46,.02-1.95,.72-3.62,2.16-4.62,3.98-.04,.07-.07,.14-.07,.21,0,.12,.11,.2,.2,.27,1.08,.87,1.64,2.35,1.41,3.72"/>
      <path class="cls-28" d="M145.08,137.45c-3.05,1.06-5.8,2.79-7.86,5.31-.25,.3-.3,.73,0,1.03,.26,.26,.78,.3,1.03,0,1.9-2.33,4.39-3.96,7.22-4.94,.37-.13,.62-.5,.51-.89-.1-.36-.52-.64-.89-.51h0Z"/>
      <circle class="cls-8" cx="136.57" cy="146.9" r="2.64"/>
      <path class="cls-16" d="M137.84,152.84c.85,1.44,2.16,2.49,3.47,3.5,.16,.12,.3,.21,.51,.21,.18,0,.39-.08,.51-.21,.24-.26,.32-.78,0-1.03-.63-.48-1.25-.97-1.83-1.51-.28-.26-.55-.54-.8-.83-.06-.07-.15-.15-.19-.24,.04,.08,.05,.06,0,0-.03-.04-.06-.07-.08-.11-.12-.17-.23-.34-.34-.52-.19-.33-.66-.47-.99-.26s-.47,.64-.26,.99h0Z"/>
      <path class="cls-28" d="M135.87,150.71c.34,.87,.75,1.71,1.24,2.5,.2,.32,.66,.48,.99,.26s.47-.65,.26-.99c-.39-.63-.74-1.29-1.03-1.97l.07,.17c-.05-.12-.1-.24-.14-.36-.07-.18-.16-.33-.33-.43-.16-.09-.38-.13-.56-.07s-.34,.17-.43,.33-.14,.38-.07,.56h0Z"/>
      <path class="cls-28" d="M133.26,142.93c.93,0,.93-1.45,0-1.45s-.93,1.45,0,1.45h0Z"/>
      <circle class="cls-2" cx="137.15" cy="147.47" r="2.64"/>
      <path class="cls-28" d="M138.85,147.84c-.16,.3-.27,.46-.48,.67-.04,.04-.07,.07-.11,.11,0,0-.18,.16-.09,.08-.14,.11-.29,.2-.44,.28-.43,.22-.89,.31-1.45,.25,.14,.01-.11-.02-.11-.02-.08-.02-.15-.03-.23-.05-.06-.02-.12-.04-.19-.06-.02,0-.17-.06-.08-.03-.15-.06-.29-.14-.42-.23-.07-.04-.13-.09-.19-.13,.06,.05-.1-.09-.12-.11-.4-.37-.64-.79-.76-1.31-.02-.07-.03-.15-.04-.22,.02,.11,0-.01,0-.03,0-.15-.02-.3,0-.45,0,0,.02-.25,0-.11,0-.08,.03-.15,.04-.23,.03-.15,.08-.3,.14-.45-.04,.11,.06-.13,.06-.12,.04-.07,.07-.14,.12-.21s.08-.13,.13-.2c0,0,.08-.11,.03-.04,.21-.26,.39-.42,.62-.56,.47-.3,.91-.41,1.45-.4,.23,0,.41,.03,.71,.13,.21,.07,.5,.21,.74,.4-.09-.07,.1,.09,.09,.08,.08,.07,.15,.14,.22,.22,.11,.12,.1,.1,.21,.27,.2,.31,.26,.46,.34,.78,.14,.54,.08,1.16-.17,1.67-.17,.35-.1,.78,.26,.99,.32,.19,.82,.09,.99-.26,.73-1.49,.52-3.25-.61-4.48s-2.98-1.57-4.5-.9-2.43,2.22-2.31,3.82,1.24,3.08,2.84,3.54c1.78,.51,3.73-.34,4.57-1.97,.18-.35,.09-.79-.26-.99-.33-.19-.81-.09-.99,.26Z"/>
      <path class="cls-28" d="M173.5,109.82c.93,0,.93-1.45,0-1.45s-.93,1.45,0,1.45h0Z"/>
      <path class="cls-22" d="M31.64,54.78c2.3-2.68,5.21-4.83,8.5-6.11,1.62-.63,3.32-1.1,5.04-1.33s3.81-.47,5.4,.21c.72,.31,1.55,.21,1.98-.52,.36-.61,.2-1.67-.52-1.98-3.76-1.62-8.66-.68-12.36,.71s-7.39,3.82-10.09,6.97c-1.21,1.41,.83,3.47,2.05,2.05h0Z"/>
      <path class="cls-28" d="M29.54,53.48c4.67-6.34,12.95-9.67,20.71-8.34,.91,.16,1.3-1.24,.39-1.4-8.46-1.45-17.26,2.1-22.35,9.01-.55,.75,.7,1.48,1.25,.73h0Z"/>
      <path class="cls-4" d="M57.39,52.97c3.15,10.53,7.35,20.41,14.33,28.9,4.9,5.96,10.65,11.26,14.95,17.67,3.34,4.99,5.75,10.59,9.3,15.44,5.86,8,14.83,13.67,24.57,15.53-22.58-24.96-42.45-51.15-62.64-78.07"/>
      <path class="cls-28" d="M131.86,139.9c-4.77-4.57-9.49-9.19-14.14-13.88-7.98-8.05-15.28-16.66-22.34-25.52-4.95-6.21-9.78-12.52-14.6-18.83-.56-.73-1.82-.01-1.25,.73,8.33,10.93,16.69,21.85,25.66,32.26,6.25,7.25,13.02,13.99,19.86,20.67,1.92,1.88,3.85,3.75,5.79,5.61,.67,.65,1.7-.38,1.03-1.03h0Z"/>
      <path class="cls-22" d="M174.77,308.62c-5.09,.73-10.19,1.41-15.26,2.07l-1.98-.52c-2.36-3.71-4.38-7.64-6.23-11.63-4.57-9.86-8.14-20.19-11.35-30.56s-6.25-21.66-8.9-32.61c-1.17-4.82-2.29-9.66-3.36-14.5-1.32-5.99-2.22-12.05-3.32-18.1-.23-1.25-.46-2.5-.55-3.77-.11-1.43-.06-2.87-.17-4.29-.28-3.52-2.09-5.49-4.05-8.18-2.71-3.72-5.42-7.44-8.13-11.16-3.85-5.29-7.7-10.57-11.55-15.86-4.42-6.07-8.85-12.14-13.27-18.22-4.43-6.08-8.86-12.16-13.29-18.24-3.87-5.31-7.73-10.62-11.6-15.93-2.74-3.76-5.48-7.52-8.21-11.27-1.04-1.43-2.08-2.86-3.12-4.28l-4.76-6.53-11.63-15.96c8.12,4.1,14.51,11.72,20.15,19.13,18.74,24.66,35.25,51.08,55.72,74.33,7.75,8.79,16.22,17.38,20.65,28.22,3.76,9.21,4.32,19.35,6.29,29.09,1.93,9.55,5.22,18.75,8.51,27.92,5.4,15.06,10.8,30.12,16.2,45.18,1.45,4.06,3.01,8.27,6.18,11.19,2.02,1.87,4.61,3.11,7.03,4.48Z"/>
      <path class="cls-28" d="M108.79,170.35c-1.91-2.63-3.83-5.26-5.74-7.88-4.6-6.31-9.19-12.62-13.79-18.93-5.56-7.63-11.12-15.27-16.68-22.9-4.81-6.6-9.61-13.2-14.42-19.79-2.32-3.18-4.51-6.53-6.99-9.6-.04-.05-.07-.09-.1-.14-.54-.75-1.8-.02-1.25,.73,1.91,2.63,3.83,5.26,5.74,7.88,4.6,6.31,9.19,12.62,13.79,18.93,5.56,7.63,11.12,15.27,16.68,22.9,4.81,6.6,9.61,13.2,14.42,19.79,2.32,3.18,4.51,6.53,6.99,9.6,.04,.05,.07,.09,.1,.14,.54,.75,1.8,.02,1.25-.73h0Z"/>
      <path class="cls-28" d="M123.24,190.18c-3.04-4.18-6.09-8.36-9.13-12.54-.43-.59-.86-1.19-1.3-1.78-.54-.75-1.8-.02-1.25,.73,3.04,4.18,6.09,8.36,9.13,12.54,.43,.59,.86,1.19,1.3,1.78,.54,.75,1.8,.02,1.25-.73h0Z"/>
      <path class="cls-28" d="M139.67,269.39c2.42,7.7,5.06,15.35,8.14,22.81,2.59,6.28,5.47,12.48,9.1,18.23,.5,.79,1.75,.06,1.25-.73-7.86-12.42-12.71-26.76-17.1-40.69-.28-.89-1.68-.51-1.4,.39h0Z"/>
      <path class="cls-28" d="M122.37,190.97c.45,4.71,.73,9.45,1.41,14.14s1.87,9.71,2.92,14.53c2.11,9.62,4.39,19.2,6.91,28.73,1.42,5.36,2.92,10.7,4.51,16.01,.27,.89,1.67,.51,1.4-.39-2.78-9.3-5.28-18.68-7.58-28.11s-4.52-18.81-6.3-28.31c-1.03-5.48-1.3-11.06-1.83-16.6-.09-.92-1.54-.93-1.45,0h0Z"/>
      <path class="cls-4" d="M182.21,138.17c10.79,.26,21.52,2.78,31.3,7.35-1.34-.37-2.41-1.35-3.47-2.26-7.25-6.24-16.44-10.17-25.96-11.12-.82-.08-1.78-.09-2.32,.54-.77,.9-.5,2.84-1.69,2.89,.78,.91,1.34,2.02,1.6,3.19"/>
      <path class="cls-28" d="M139,155.7c5.77,6.19,14.62,7.8,22.67,6.15,7.19-1.48,14.62-5.87,17.86-12.71,2.07-4.38,2.71-9.68,1.14-14.3-.3-.88-1.7-.5-1.4,.39,2.59,7.64-1.04,15.92-7.3,20.55-5.72,4.22-13.32,6.07-20.34,4.94-4.45-.71-8.52-2.73-11.6-6.03-.64-.68-1.66,.34-1.03,1.03h0Z"/>
      <g>
        <ellipse class="cls-2" cx="178.29" cy="133.18" rx="2.93" ry="2.57"/>
        <path class="cls-28" d="M180.25,133.61c-.16,.3-.27,.46-.48,.67-.04,.04-.07,.07-.11,.11,0,0-.18,.16-.09,.08-.14,.11-.29,.2-.44,.28-.43,.22-.89,.31-1.45,.25,.14,.01-.11-.02-.11-.02-.08-.02-.15-.03-.23-.05-.06-.02-.12-.04-.19-.06-.02,0-.17-.06-.08-.03-.15-.06-.29-.14-.42-.23-.07-.04-.13-.09-.19-.13,.06,.05-.1-.09-.12-.11-.4-.37-.64-.79-.76-1.31-.02-.07-.03-.15-.04-.22,.02,.11,0-.01,0-.03,0-.15-.02-.3,0-.45,0,0,.02-.25,0-.11,0-.08,.03-.15,.04-.23,.03-.15,.08-.3,.14-.45-.04,.11,.06-.13,.06-.12,.04-.07,.07-.14,.12-.21s.08-.13,.13-.2c0,0,.08-.11,.03-.04,.21-.26,.39-.42,.62-.56,.47-.3,.91-.41,1.45-.4,.23,0,.41,.03,.71,.13,.21,.07,.5,.21,.74,.4-.09-.07,.1,.09,.09,.08,.08,.07,.15,.14,.22,.22,.11,.12,.1,.1,.21,.27,.2,.31,.26,.46,.34,.78,.14,.54,.08,1.16-.17,1.67-.17,.35-.1,.78,.26,.99,.32,.19,.82,.09,.99-.26,.73-1.49,.52-3.25-.61-4.48s-2.98-1.57-4.5-.9-2.43,2.22-2.31,3.82,1.24,3.08,2.84,3.54c1.78,.51,3.73-.34,4.57-1.97,.18-.35,.09-.79-.26-.99-.33-.19-.81-.09-.99,.26Z"/>
      </g>
      <path class="cls-28" d="M216.71,146.84c-10.33-7.8-22.19-13.78-35.11-15.61-.91-.13-1.31,1.27-.39,1.4,12.82,1.82,24.51,7.73,34.76,15.46,.74,.56,1.47-.7,.73-1.25h0Z"/>
      <path class="cls-28" d="M266.33,201.87c-11.38-13.09-21.34-27.37-33.21-40.05-3.5-3.74-7.17-7.31-11.05-10.65-.7-.61-1.73,.42-1.03,1.03,13.31,11.44,23.82,25.59,34.74,39.23,3.11,3.88,6.25,7.72,9.51,11.47,.61,.71,1.64-.32,1.03-1.03h0Z"/>
      <path class="cls-28" d="M46.31,84.57c-6.5-8.92-13-17.84-19.49-26.76-1.18-1.62-2.16-3.36-3.2-5.07-.48-.8-1.74-.07-1.25,.73,.94,1.55,1.82,3.17,2.89,4.64l4.12,5.66c4.16,5.71,8.31,11.41,12.47,17.12l3.21,4.41c.54,.75,1.8,.02,1.25-.73h0Z"/>
      <path class="cls-8" d="M59.24,62.31c2.28,6.08,5.47,11.74,9.48,16.84,.58,.73,1.6-.3,1.03-1.03-3.84-4.89-6.92-10.38-9.1-16.2-.32-.87-1.73-.49-1.4,.39h0Z"/>
      <path class="cls-8" d="M71.71,82.75c.93,0,.93-1.45,0-1.45s-.93,1.45,0,1.45h0Z"/>
      <path class="cls-8" d="M186.35,140.07c2.63-.11,5.22,.24,7.72,1.06,.89,.29,1.27-1.11,.39-1.4-2.61-.85-5.37-1.23-8.11-1.11-.93,.04-.93,1.49,0,1.45h0Z"/>
      <path class="cls-8" d="M197.26,141.98c.93,0,.93-1.45,0-1.45s-.93,1.45,0,1.45h0Z"/>
      <path class="cls-28" d="M162.84,305.21c19.5-1.88,38.81-5.47,57.68-10.74,.9-.25,.52-1.65-.39-1.4-18.74,5.23-37.93,8.82-57.3,10.69-.92,.09-.93,1.54,0,1.45h0Z"/>
      <path class="cls-28" d="M223.97,293.32c.93,0,.93-1.45,0-1.45s-.93,1.45,0,1.45h0Z"/>
      <path class="cls-22" d="M218.93,168.76c10.37,19.71,19.24,41.86,27.33,62.61-2.41,.26-5.46-2.3-7.54-3.32-1.25-.61-2.55-.57-3.39-1.76-2.24-3.18-2.92-8.47-3.98-12.2-1.5-5.29-3.46-10.28-4.91-15.65-.67-2.5-1.6-5.4-2.31-7.89-1.89-6.64-3.15-13.21-5.72-19.54"/>
      <path class="cls-28" d="M225.19,191.56c-2.51-8.48-5.02-16.95-7.54-25.43-.27-.89-1.67-.51-1.4,.39,2.52,8.47,5.03,16.95,7.54,25.43,.26,.89,1.66,.51,1.4-.39h0Z"/>
      <path class="cls-28" d="M242.9,250.38c-5.72-18.44-11.26-36.94-16.75-55.46-.26-.89-1.66-.51-1.4,.39,5.49,18.51,11.03,37.01,16.75,55.46,.28,.89,1.68,.51,1.4-.39h0Z"/>
      <path class="cls-28" d="M253.91,284.79c-3.39-10.22-6.53-20.52-9.75-30.8-.28-.89-1.68-.51-1.4,.39,3.22,10.28,6.37,20.58,9.75,30.8,.29,.88,1.69,.5,1.4-.39h0Z"/>
      <path class="cls-13" d="M228.66,360.24c-.78-8.2-.35-16.46,1.33-24.53l-2.13,.87c9.13,6.53,18.66,12.48,28.53,17.84,1.64,.89,3.11-1.61,1.46-2.5-9.87-5.35-19.39-11.31-28.53-17.84-.74-.53-1.95,0-2.13,.87-1.74,8.32-2.24,16.84-1.43,25.3,.18,1.84,3.08,1.86,2.9,0h0Z"/>
      <path class="cls-13" d="M227.59,336.56c-.94,9.93-1.09,19.92-.44,29.87s2.05,19.83,3.7,29.66c.95,5.66,2,11.31,3.04,16.96,.34,1.83,3.13,1.06,2.8-.77-3.61-19.53-7.15-39.15-7.04-59.08,.03-5.56,.32-11.11,.84-16.64,.18-1.86-2.73-1.84-2.9,0h0Z"/>
      <path class="cls-28" d="M284.29,403.29c-17.5-.34-34.8,3.39-50.62,10.87-.84,.4-.11,1.65,.73,1.25,15.59-7.37,32.65-11.01,49.89-10.68,.93,.02,.93-1.43,0-1.45h0Z"/>
      <path class="cls-8" d="M187.57,165.4c-.82,1.47-.53,3.45,.62,4.68s3.05,1.66,4.65,1.11c1.59-.55,2.82-2,3.16-3.65,.23-1.13,.06-2.37-.61-3.31s-1.87-1.51-3.01-1.3"/>
      <path class="cls-28" d="M186.94,165.18c-.8,1.5-.74,3.38,.17,4.83s2.49,2.23,4.15,2.28c3.52,.11,6.3-3.54,5.38-6.92-.54-1.98-2.4-3.33-4.46-3-.39,.06-.6,.54-.51,.89,.11,.41,.5,.57,.89,.51,1.18-.19,2.27,.73,2.62,1.8,.39,1.21,.12,2.51-.59,3.55-1.35,1.98-4.42,2.39-6.01,.46-.83-1.01-1-2.51-.38-3.66,.44-.82-.81-1.56-1.25-.73h0Z"/>
      <path class="cls-28" d="M189.55,164.63c.93,0,.93-1.45,0-1.45s-.93,1.45,0,1.45h0Z"/>
      <path class="cls-28" d="M86.53,130.05c.93,0,.93-1.45,0-1.45s-.93,1.45,0,1.45h0Z"/>
      <path class="cls-28" d="M109.94,174.31c.93,0,.93-1.45,0-1.45s-.93,1.45,0,1.45h0Z"/>
      <path class="cls-28" d="M86.53,133.26c.93,0,.93-1.45,0-1.45s-.93,1.45,0,1.45h0Z"/>
      <path class="cls-28" d="M150.9,264.53c.93,0,.93-1.45,0-1.45s-.93,1.45,0,1.45h0Z"/>
      <path class="cls-28" d="M152.11,261.57c.93,0,.93-1.45,0-1.45s-.93,1.45,0,1.45h0Z"/>
      <path class="cls-28" d="M154.38,265.66c.93,0,.93-1.45,0-1.45s-.93,1.45,0,1.45h0Z"/>
      <path class="cls-10" d="M186.03,329.58c-.32,3.29,.24,6.55,.74,9.79s1.04,6.55,1.61,9.81c1.12,6.52,2.36,13.02,3.73,19.48,2.73,12.92,6.01,25.72,9.97,38.32,2.23,7.08,4.67,14.08,7.35,21,.67,1.72,3.47,.97,2.8-.77-9.43-24.39-15.88-49.82-20.47-75.54-.64-3.57-1.24-7.15-1.81-10.73s-1.38-7.55-1.01-11.36c.18-1.86-2.72-1.84-2.9,0h0Z"/>
      <path class="cls-10" d="M162.09,343.03c3.67,24.68,9.86,48.97,18.48,72.39,2.41,6.56,5.02,13.04,7.8,19.45,.74,1.71,3.24,.23,2.5-1.46-9.81-22.63-17.28-46.28-22.3-70.43-1.43-6.87-2.65-13.78-3.69-20.72-.27-1.84-3.07-1.06-2.8,.77h0Z"/>
      <path class="cls-10" d="M166.66,335.28c3.81-2.59,6.91-6.15,8.86-10.33l-2.65-1.12c-.95,3.44-1.99,7.12-4.91,9.43-1.15,.91,.1,2.86,1.41,2.42,4.15-1.37,6.09-5.45,7.64-9.21,.27-.66-.24-1.47-.84-1.71s-1.49-.07-1.81,.59c-.82,1.7-1.24,3.52-1.89,5.29-.47,1.27-1.17,2.57-2.35,3.3-.61,.38-.89,1.15-.59,1.81,.26,.6,1.03,1.11,1.71,.84,3.51-1.38,5.28-4.67,6.72-7.96,.29-.66,.25-1.41-.37-1.87-.58-.44-1.37-.4-1.9,.11-.92,.87-1.06,2.02-1.39,3.17-.27,.92-.85,1.78-1.62,2.35-1.31,.96-.55,3,1.12,2.65,2.24-.46,4.02-2.18,4.73-4.33,.51-1.56-1.86-2.55-2.65-1.12-1.03,1.88-2.38,3.48-4.04,4.84-.99,.81-.16,2.5,1.03,2.48,3.11-.06,5.04-2.72,6.4-5.2l-2.65-1.12c-.13,.93-.44,1.73-1.09,2.42-.94,1-.03,2.91,1.41,2.42,1.04-.35,1.94-.89,2.73-1.65,1.34-1.3-.71-3.35-2.05-2.05-.42,.41-.89,.72-1.45,.91l1.41,2.42c.96-1.02,1.64-2.3,1.83-3.7,.1-.72-.11-1.42-.84-1.71-.65-.26-1.46-.05-1.81,.59-.51,.93-1.04,1.86-1.76,2.62-.65,.69-1.32,1.14-2.14,1.15l1.03,2.48c1.83-1.5,3.35-3.36,4.49-5.43l-2.65-1.12c-.4,1.21-1.45,2.05-2.7,2.31l1.12,2.65c1.08-.78,1.99-1.77,2.54-3,.26-.59,.44-1.17,.59-1.8,.11-.49,.2-.92,.47-1.18l-2.28-1.76c-1.07,2.45-2.4,5.61-4.98,6.62l1.12,2.65c1.63-1,2.67-2.57,3.39-4.3s1.06-3.62,1.89-5.32l-2.65-1.12c-1.13,2.75-2.67,6.21-5.61,7.18l1.41,2.42c3.29-2.6,4.58-6.83,5.65-10.71,.43-1.54-1.94-2.64-2.65-1.12-1.74,3.73-4.41,6.97-7.82,9.29-.65,.44-.93,1.28-.52,1.98,.38,.64,1.33,.96,1.98,.52h0Z"/>
      <path class="cls-28" d="M158.1,337.52c2.4,.31,4.5-1.14,6.22-2.64s3.23-3.34,4.42-5.32c2.37-3.94,3.55-8.55,3.3-13.15-.05-.93-1.5-.93-1.45,0,.23,4.14-.74,8.26-2.78,11.87-1,1.78-2.24,3.4-3.71,4.83-1.6,1.56-3.62,3.27-6,2.97-.92-.12-.91,1.33,0,1.45h0Z"/>
      <path class="cls-11" d="M159.64,313.94c13.37-1.3,26.67-3.29,39.83-6.01,12.07-2.49,24.11-5.49,35.57-10.1,6.39-2.57,12.57-5.61,18.39-9.29,1.57-.99,.12-3.51-1.46-2.5-10.23,6.47-21.53,10.91-33.13,14.24-12.04,3.45-24.39,5.92-36.75,7.89-7.45,1.19-14.93,2.14-22.44,2.87-1.84,.18-1.86,3.08,0,2.9h0Z"/>
      <path class="cls-28" d="M217.13,300.62c2.22,7.53,4.44,15.06,6.66,22.6,.26,.89,1.66,.51,1.4-.39-2.22-7.53-4.44-15.06-6.66-22.6-.26-.89-1.66-.51-1.4,.39h0Z"/>
      <path class="cls-28" d="M220.78,321.87l5.2-5.04c1.3-1.26,3.44-2.51,2.95-4.56-.54-2.29-1.38-4.56-2.06-6.82s-1.43-4.71-2.14-7.06c-.27-.89-1.67-.51-1.4,.39,1.25,4.14,2.51,8.27,3.76,12.41,.35,1.16,.76,1.8-.19,2.73-.76,.74-1.52,1.47-2.28,2.2-1.63,1.57-3.25,3.15-4.88,4.72-.67,.65,.35,1.68,1.03,1.03h0Z"/>
      <path class="cls-28" d="M159.52,311.31c25.31-3.33,51.04-6.74,74.9-16.29,6.61-2.65,13.03-5.76,19.16-9.41,.8-.48,.07-1.73-.73-1.25-21.85,13.03-46.98,18.69-71.87,22.51-7.13,1.1-14.29,2.05-21.45,2.99-.91,.12-.92,1.57,0,1.45h0Z"/>
      <path class="cls-28" d="M186.43,308.47c1.53,26.51,6.24,52.74,12.95,78.41,6.77,25.91,15.54,51.26,25.09,76.27,5.35,14.01,10.96,27.93,16.63,41.82,.35,.85,1.75,.48,1.4-.39-10.1-24.75-20.01-49.59-28.63-74.9-8.52-25.03-15.79-50.55-20.55-76.58-2.7-14.75-4.57-29.65-5.44-44.63-.05-.93-1.5-.93-1.45,0h0Z"/>
      <path class="cls-28" d="M170.14,377.25c-4.54-17.26-8.06-34.8-10.3-52.51-.62-4.88-1.14-9.78-1.56-14.68-.08-.92-1.53-.93-1.45,0,1.53,17.65,4.33,35.18,8.23,52.46,1.14,5.06,2.38,10.1,3.7,15.12,.24,.9,1.64,.52,1.4-.39h0Z"/>
      <path class="cls-28" d="M207.9,473.26c-12.09-22.34-22.12-45.79-30.06-69.92-2.25-6.84-4.33-13.74-6.24-20.69-.25-.9-1.65-.52-1.4,.39,6.79,24.63,15.7,48.69,26.69,71.76,3.09,6.48,6.34,12.88,9.76,19.19,.44,.82,1.7,.09,1.25-.73h0Z"/>
      <path class="cls-28" d="M236.38,518.18c-9.49-12.84-18.11-26.31-25.91-40.24-.46-.81-1.71-.08-1.25,.73,7.8,13.93,16.42,27.4,25.91,40.24,.55,.74,1.81,.02,1.25-.73h0Z"/>
      <path class="cls-11" d="M242.55,316.4c11.94,11.67,26.99,19.23,42.24,25.61,4.4,1.84,8.84,3.59,13.28,5.34,1.74,.68,2.49-2.12,.77-2.8-15.07-5.92-30.35-11.98-43.66-21.39-3.76-2.66-7.3-5.6-10.59-8.81-1.34-1.31-3.39,.74-2.05,2.05h0Z"/>
      <path class="cls-11" d="M237.45,340.15c16.86,10.13,34.36,19.18,52.38,27.06,5.12,2.24,10.28,4.38,15.48,6.44,1.74,.69,2.49-2.12,.77-2.8-18.1-7.16-35.73-15.48-52.77-24.9-4.85-2.68-9.65-5.45-14.4-8.31-1.6-.96-3.06,1.54-1.46,2.5h0Z"/>
      <path class="cls-28" d="M95.87,396.76c.93,0,.93-1.45,0-1.45s-.93,1.45,0,1.45h0Z"/>
      <path class="cls-28" d="M100.23,353.5c.93,0,.93-1.45,0-1.45s-.93,1.45,0,1.45h0Z"/>
      <path class="cls-28" d="M170.02,380.71c.93,0,.93-1.45,0-1.45s-.93,1.45,0,1.45h0Z"/>
      <path class="cls-18" d="M343.99,276.68c.51-2.5,1.01-5.06,2.06-7.4,.52-1.16,1.18-2.24,1.94-3.26,.7-.94,1.48-2.16,2.47-2.82,1.96-1.29,5.12-.4,6.88,.82,2.08,1.44,3.07,3.9,2.45,6.37s-2.85,4.32-5.37,4.87c-.91,.2-.53,1.6,.39,1.4,2.52-.55,4.84-2.2,5.92-4.58,1.16-2.56,.85-5.59-.95-7.77s-4.74-3.31-7.51-3.09c-1.4,.11-2.59,.55-3.56,1.6s-1.94,2.31-2.74,3.55c-1.93,2.98-2.68,6.5-3.38,9.92-.19,.91,1.21,1.3,1.4,.39h0Z"/>
      <path class="cls-28" d="M306.47,263.97c10.02,5.19,20.04,10.38,30.05,15.57,1.41,.73,2.83,1.47,4.24,2.2,.37,.19,.99,.06,1.07-.43,.84-5.65,2.65-11.02,5.69-15.88,1.62-2.59,3.56-4.87,5.67-7.06,.9-.94,1.44-2.24,2.09-3.37,.19-.33,.09-.81-.26-.99-12.65-6.54-24.87-13.98-37.12-21.24-13.06-7.74-26.06-15.57-39.04-23.45-2.72-1.65-5.45-3.31-8.17-4.97-.8-.49-1.53,.77-.73,1.25,7.73,4.72,15.48,9.41,23.24,14.08,14.26,8.59,28.55,17.14,42.96,25.47,5.99,3.46,11.98,6.93,18.12,10.1l-.26-.99c-.75,1.31-1.38,2.57-2.43,3.65-2.1,2.16-3.96,4.56-5.54,7.12-2.98,4.86-4.79,10.25-5.63,15.88l1.07-.43c-10.02-5.19-20.04-10.38-30.05-15.57-1.41-.73-2.83-1.47-4.24-2.2-.83-.43-1.56,.82-.73,1.25h0Z"/>
      <path class="cls-28" d="M234.96,226.91c7.4,3.83,14.8,7.67,22.2,11.5,11.7,6.06,23.4,12.12,35.09,18.19,2.69,1.39,5.37,2.78,8.06,4.18,.83,.43,1.56-.82,.73-1.25-7.4-3.83-14.8-7.67-22.2-11.5l-35.09-18.19c-2.69-1.39-5.37-2.78-8.06-4.18-.83-.43-1.56,.82-.73,1.25h0Z"/>
      <path class="cls-28" d="M218.69,150.1c.93,0,.93-1.45,0-1.45s-.93,1.45,0,1.45h0Z"/>
      <path class="cls-28" d="M48.24,89.03c.93,0,.93-1.45,0-1.45s-.93,1.45,0,1.45h0Z"/>
      <path class="cls-28" d="M77.99,79.93c.93,0,.93-1.45,0-1.45s-.93,1.45,0,1.45h0Z"/>
      <path class="cls-18" d="M6.87,29.7c-2.23-1.06-3.48-3.66-2.54-6.03,.56-1.4,1.68-2.54,2.65-3.66s2.02-2.3,3.06-3.44c4.07-4.45,8.53-8.62,14.11-11.09,1.7-.75,.23-3.25-1.46-2.5-6.57,2.91-11.68,8.11-16.37,13.41-2.18,2.47-5.02,5.09-5.19,8.6-.14,2.97,1.61,5.93,4.29,7.2,1.68,.8,3.15-1.7,1.46-2.5h0Z"/>
      <g>
        <path class="cls-14" d="M195.81,263.78c5.44,1.17,10.87,2.34,16.31,3.51,.42,.09,.89,.17,1.25-.05,.34-.21,.48-.63,.6-1.02,1.5-4.9,3.65-9.6,6.38-13.93-5.68-2.79-11.64-5-17.77-6.58-.33-.09-.69-.17-1-.03-.37,.17-.54,.59-.67,.98-1.77,5.09-3.55,10.18-5.32,15.27"/>
        <path class="cls-28" d="M206.77,263.62c-.62,1.64-1.16,3.31-1.64,5-.11,.38,.13,.79,.51,.89s.78-.13,.89-.51c.48-1.69,1.03-3.36,1.64-5,.14-.37-.15-.79-.51-.89-.41-.11-.75,.14-.89,.51h0Z"/>
        <path class="cls-28" d="M209.32,263.77c-.67,1.47-1.18,3-1.51,4.58-.08,.37,.11,.8,.51,.89,.36,.08,.81-.11,.89-.51,.16-.74,.35-1.48,.58-2.2s.5-1.4,.78-2.03c.16-.34,.11-.8-.26-.99-.32-.17-.82-.11-.99,.26h0Z"/>
        <path class="cls-17" d="M198.31,260.07c1.49-4.13,3-8.3,4.92-12.26l-1.25,.72s.15,.02,.17,0c.18-.08-.33-.07-.08,0,.17,.04,.34,.07,.51,.11,.5,.12,1,.27,1.49,.43,1.35,.42,2.69,.89,4.02,1.38s2.62,.97,3.92,1.47c.5,.19,.99,.39,1.49,.59,.18,.07,.36,.15,.54,.22-.42-.18,0,0,.11,.05,.71,.32,1.56,.2,1.98-.52,.36-.62,.2-1.66-.52-1.98-2.19-1-4.49-1.8-6.75-2.62-1.36-.49-2.72-.97-4.09-1.4-.87-.27-1.86-.64-2.79-.61-.48,.01-1.03,.26-1.25,.72-2.02,4.18-3.63,8.58-5.21,12.95-.64,1.76,2.17,2.52,2.8,.77h0Z"/>
        <path class="cls-28" d="M194.96,264.48c3.2,.69,6.39,1.38,9.59,2.06l4.8,1.03c1.05,.23,2.59,.87,3.64,.32,.9-.47,1.07-1.69,1.36-2.56,.48-1.47,1.02-2.93,1.62-4.36,1.22-2.89,2.68-5.67,4.34-8.32,.2-.31,.09-.82-.26-.99-2.97-1.45-6.01-2.76-9.11-3.9-1.59-.59-3.2-1.13-4.83-1.63-1.44-.44-3.03-1.09-4.54-1.24-1.12-.1-1.68,.6-2.04,1.56-.63,1.68-1.18,3.39-1.77,5.09-1.18,3.39-2.36,6.79-3.55,10.18-.31,.88,1.09,1.26,1.4,.39,.99-2.85,1.99-5.71,2.98-8.56,.51-1.47,1.02-2.93,1.53-4.4,.24-.69,.47-1.4,.73-2.08,.2-.53,.25-.72,.87-.68,.37,.03,.77,.2,1.12,.3,5.68,1.54,11.19,3.63,16.48,6.21l-.26-.99c-1.44,2.3-2.73,4.69-3.84,7.17-.52,1.16-1,2.33-1.45,3.52-.24,.63-.47,1.27-.68,1.92-.16,.47-.29,1.56-.63,1.91-.43,.44-1.25,.07-1.77-.04l-2.16-.46-4.32-.93-8.87-1.91c-.91-.2-1.3,1.2-.39,1.4h0Z"/>
        <path class="cls-28" d="M205.8,249.06c.73-1.33,1.33-2.73,1.78-4.18,.11-.36-.13-.81-.51-.89-.39-.09-.77,.12-.89,.51-.11,.35-.23,.7-.35,1.05-.06,.16-.12,.32-.18,.48-.03,.07-.05,.14-.08,.21,0,.02-.11,.27-.07,.17-.28,.66-.6,1.3-.94,1.93-.18,.33-.09,.81,.26,.99s.8,.09,.99-.26h0Z"/>
        <path class="cls-28" d="M208.78,250.28c.69-1.52,1.2-3.12,1.77-4.69,.13-.36-.15-.81-.51-.89-.41-.09-.75,.12-.89,.51-.27,.75-.54,1.5-.82,2.25-.26,.71-.51,1.45-.8,2.09-.16,.34-.11,.8,.26,.99,.32,.17,.82,.11,.99-.26h0Z"/>
      </g>
      <path class="cls-19" d="M273.01,430.14c5.75,6.7,13.63,11.44,22.23,13.42,1.82,.42,2.59-2.38,.77-2.8-8.16-1.88-15.5-6.32-20.95-12.67-1.22-1.42-3.26,.64-2.05,2.05h0Z"/>
      <path class="cls-8" d="M263.78,440.61c6.02,6.97,14.13,11.38,21.94,16.03s16.21,9.28,24.89,12.74c4.95,1.97,10.15,3.53,15.53,3.3l-.39-2.85c-6.93,1.37-13.84-1.37-20.04-4.18-3-1.36-5.99-2.77-8.71-4.64-2.5-1.72-4.87-3.71-7.95-4.24-1.18-.2-2.34,.96-1.64,2.13,1.81,3.03,4.8,4.87,8.27,5.34,1.31,.18,1.82-1.66,1.03-2.48-1.97-2.01-4.27-3.72-6.82-4.93-2.75-1.31-5.58-2.22-8.15-3.9-5.44-3.56-10.52-7.8-15.63-11.81-1.45-1.14-3.52,.9-2.05,2.05,5.08,3.98,10.14,8.08,15.45,11.75,2.47,1.7,5.11,2.79,7.85,3.94s5.19,2.81,7.29,4.95l1.03-2.48c-2.42-.32-4.53-1.84-5.76-3.9l-1.64,2.13c3.18,.55,5.55,2.87,8.17,4.56,2.98,1.91,6.25,3.37,9.49,4.79,6.49,2.84,13.43,5.13,20.58,3.72,1.6-.32,1.24-2.92-.39-2.85-4.58,.19-8.99-1-13.24-2.6s-8.47-3.57-12.56-5.67c-8.03-4.12-15.78-8.84-23.44-13.62-4.15-2.59-7.88-5.62-11.08-9.33-1.22-1.41-3.27,.64-2.05,2.05h0Z"/>
      <path class="cls-28" d="M272.54,424.57c-1.72,2.05-3.29,4.22-4.78,6.44s-3.09,4.36-4.31,6.67c-.87,1.65-1.01,3.63-.34,5.38,.8,2.11,2.65,3.26,4.39,4.55,8.79,6.53,18.08,12.4,27.81,17.42,4.63,2.39,9.37,4.6,14.21,6.54s9.55,3.42,14.55,2.5c4.02-.74,7.75-3.16,9.26-7.07s.59-8.45-1.48-11.98c-2.68-4.58-7.36-7.59-11.88-10.14-5.49-3.1-11.04-6.1-16.56-9.14-.82-.45-1.55,.8-.73,1.25,4.51,2.48,9.02,4.98,13.53,7.46,3.88,2.14,7.89,4.24,11.13,7.31,3.07,2.91,5.3,6.8,5.27,11.13s-2.83,7.9-6.98,9.28c-4.43,1.47-9.1,.45-13.37-1.09-4.57-1.65-9.01-3.7-13.36-5.85-8.79-4.34-17.23-9.39-25.28-14.99-2.2-1.53-4.36-3.09-6.5-4.7-2.03-1.53-3.57-3.47-2.82-6.16,.35-1.24,1.22-2.31,1.91-3.38,.75-1.16,1.5-2.33,2.26-3.49,1.58-2.39,3.23-4.72,5.07-6.91,.6-.71-.42-1.74-1.03-1.03h0Z"/>
      <path class="cls-28" d="M285.87,454.39c7.12,4.25,14.5,8.28,22.05,11.71,7.03,3.19,14.62,5.59,22.43,4.7,.92-.1,.93-1.56,0-1.45-7.87,.9-15.48-1.61-22.53-4.89-7.25-3.37-14.35-7.23-21.21-11.33-.8-.48-1.53,.77-.73,1.25h0Z"/>
      <path class="cls-28" d="M264.47,437.76c5.48,5.85,11.9,10.69,18.66,14.95,.79,.5,1.52-.76,.73-1.25-6.66-4.2-12.97-8.97-18.37-14.73-.64-.68-1.66,.34-1.03,1.03h0Z"/>
      <path class="cls-1" d="M246.8,515.62c-2.28,.99-4.77,1.5-7.26,1.48-.45,0-.9-.03-1.31-.21-.86-.38-1.29-1.38-1.41-2.31-.32-2.36,.79-4.77,2.54-6.38s4.08-2.49,6.43-2.87c2.28-.37,4.88-.21,6.51,1.43,.47,.47,.83,1.04,1.08,1.65,.93,2.31,0,5.23-2.11,6.56"/>
      <path class="cls-12" d="M240.13,513.81c.22,.26,0-.02-.04-.07-.05-.08-.09-.17-.13-.25-.09-.14,.07,.24,0-.02-.03-.11-.07-.22-.09-.33l-.02-.11c-.03-.16-.03-.15,0,.05-.03-.07-.01-.21-.02-.29,0-.1,0-.19,0-.29,0-.06,0-.11,.01-.17,.01-.11,0-.08-.01,.1-.02-.15,.09-.41,.14-.56,.02-.07,.18-.37,.02-.08,.05-.09,.09-.18,.13-.26,.1-.19,.22-.37,.35-.54-.11,.16-.06,.08,.03-.03,.08-.09,.16-.17,.24-.26,.15-.15,.32-.29,.48-.44-.15,.13-.08,.06,.04-.02,.08-.06,.16-.11,.24-.17,.18-.12,.37-.23,.56-.33,.1-.05,.2-.1,.3-.15,.01,0,.42-.19,.16-.08,.94-.39,1.94-.63,2.93-.85,.74-.17,1.25-1.06,1.01-1.78-.25-.78-.99-1.19-1.78-1.01-2.29,.51-4.75,1.25-6.3,3.12-.82,.99-1.33,2.1-1.43,3.39s.34,2.48,1.14,3.47c.48,.59,1.56,.54,2.05,0,.58-.63,.51-1.42,0-2.05h0Z"/>
      <path class="cls-28" d="M240.14,516.79c-2.28-.56-3.07-3.17-2.29-5.2,.94-2.47,3.42-3.85,5.78-4.69s5.26-1.81,7.48-.32c2.08,1.39,2.51,4.31,.95,6.27-.57,.72,.44,1.76,1.03,1.03,1.47-1.84,1.84-4.35,.69-6.46s-3.59-3.2-6.01-3c-2.57,.21-5.38,1.15-7.58,2.49-2.07,1.25-3.8,3.28-4.07,5.76s1.21,4.93,3.64,5.53c.91,.22,1.29-1.18,.39-1.4h0Z"/>
      <path class="cls-28" d="M233.93,520.73c5.02-2.01,10.11-3.84,15.26-5.47,.89-.28,.51-1.68-.39-1.4-5.15,1.63-10.24,3.45-15.26,5.47-.86,.34-.48,1.75,.39,1.4h0Z"/>
      <path class="cls-28" d="M264.97,556.33c2.98-4.63,3.97-10.35,2.76-15.72-.2-.91-1.6-.52-1.4,.39,1.13,5,.16,10.3-2.61,14.6-.51,.79,.75,1.51,1.25,.73h0Z"/>
      <path class="cls-28" d="M267.29,538.5c.93,0,.93-1.45,0-1.45s-.93,1.45,0,1.45h0Z"/>
      <path class="cls-28" d="M234.1,529.13c-.35,.85-1.22,1.4-2.08,1.62-.54,.14-1.1,.17-1.66,.13-.46-.03-1.03-.08-1.41-.36-.24-.18-.46-.52-.25-.78s.64-.29,.96-.26c.61,.07,1.21,.33,1.78,.52,.64,.21,1.28,.41,1.92,.62,.89,.29,1.27-1.11,.39-1.4-.64-.21-1.28-.41-1.92-.62-.61-.2-1.22-.43-1.85-.53-1.13-.17-2.53,.26-2.78,1.54s.79,2.24,1.92,2.54,2.56,.28,3.69-.14c1.22-.44,2.18-1.3,2.68-2.51,.15-.36-.16-.8-.51-.89-.42-.11-.74,.14-.89,.51h0Z"/>
      <path class="cls-28" d="M312.8,436.19c-.35,.85-1.22,1.4-2.08,1.62-.54,.14-1.1,.17-1.66,.13-.46-.03-1.03-.08-1.41-.36-.24-.18-.46-.52-.25-.78s.64-.29,.96-.26c.61,.07,1.21,.33,1.78,.52,.64,.21,1.28,.41,1.92,.62,.89,.29,1.27-1.11,.39-1.4-.64-.21-1.28-.41-1.92-.62-.61-.2-1.22-.43-1.85-.53-1.13-.17-2.53,.26-2.78,1.54s.79,2.24,1.92,2.54,2.56,.28,3.69-.14c1.22-.44,2.18-1.3,2.68-2.51,.15-.36-.16-.8-.51-.89-.42-.11-.74,.14-.89,.51h0Z"/>
      <path class="cls-28" d="M319.16,439.97c-.35,.85-1.22,1.4-2.08,1.62-.54,.14-1.1,.17-1.66,.13-.46-.03-1.03-.08-1.41-.36-.24-.18-.46-.52-.25-.78s.64-.29,.96-.26c.61,.07,1.21,.33,1.78,.52,.64,.21,1.28,.41,1.92,.62,.89,.29,1.27-1.11,.39-1.4-.64-.21-1.28-.41-1.92-.62-.61-.2-1.22-.43-1.85-.53-1.13-.17-2.53,.26-2.78,1.54s.79,2.24,1.92,2.54,2.56,.28,3.69-.14c1.22-.44,2.18-1.3,2.68-2.51,.15-.36-.16-.8-.51-.89-.42-.11-.74,.14-.89,.51h0Z"/>
      <path class="cls-11" d="M277.81,427.4c8.55-17.59,18.72-34.35,30.39-50.05l-2.5-1.46c-2.13,3.31-4.61,6.38-6.95,9.55s-4.65,6.38-6.91,9.62c-4.56,6.54-8.92,13.22-13.09,20.02-1.16,1.88-2.3,3.78-3.42,5.68-.53,.9-1.28,1.85-1.63,2.83s.39,1.98,.8,2.84c.79,1.69,3.29,.22,2.5-1.46-.24-.52-.48-1.03-.72-1.55v1.46c4.8-8.26,9.88-16.35,15.25-24.26,2.66-3.92,5.39-7.79,8.18-11.62s5.9-7.61,8.49-11.64c1.03-1.6-1.42-2.93-2.5-1.46-11.66,15.7-21.84,32.46-30.39,50.05-.81,1.67,1.69,3.14,2.5,1.46h0Z"/>
      <path class="cls-28" d="M228.41,334.75c20.69,13.52,42.54,25.24,65.26,34.97,6.27,2.68,12.59,5.22,18.98,7.6,.88,.33,1.25-1.07,.39-1.4-22.95-8.57-45.15-19.12-66.28-31.51-5.96-3.49-11.83-7.14-17.61-10.91-.78-.51-1.51,.74-.73,1.25h0Z"/>
      <path class="cls-28" d="M213.29,179.86c.55-1.45,1.1-2.91,1.66-4.36,.1-.27-.12-.6-.38-.67-.31-.08-.56,.1-.67,.38-.55,1.45-1.1,2.91-1.66,4.36-.1,.27,.12,.6,.38,.67,.31,.08,.56-.1,.67-.38h0Z"/>
      <path class="cls-28" d="M214.89,183.13l.84-3.54c.07-.28-.09-.6-.38-.67s-.6,.08-.67,.38l-.84,3.54c-.07,.28,.09,.6,.38,.67s.6-.08,.67-.38h0Z"/>
      <path class="cls-8" d="M354.04,287.34c3.25,.72,6.45-.43,8.97-2.49s4.14-5.03,5.56-7.91c.35-.7,.19-1.57-.52-1.98-.64-.37-1.64-.19-1.98,.52-1.23,2.49-2.56,5.02-4.64,6.92-1.75,1.59-4.24,2.67-6.61,2.14-.76-.17-1.57,.23-1.78,1.01-.2,.73,.25,1.61,1.01,1.78h0Z"/>
      <g>
        <path class="cls-28" d="M353.15,268.81c-1.73,2.21-2.51,5.74,.07,7.7,2.41,1.84,5.71,.23,7.36-1.86,3.47-4.42,2.09-11.04-2.96-13.53-2.5-1.23-5.41-1.41-8.08-.65-.9,.25-.52,1.65,.39,1.4,3.55-1.01,7.92-.11,10.01,3.15,1.2,1.86,1.46,4.2,.8,6.3s-2.51,4.42-4.93,4.53c-1.3,.06-2.34-.76-2.69-2-.4-1.42,.2-2.89,1.07-4.01,.57-.73-.45-1.76-1.03-1.03h0Z"/>
        <path class="cls-28" d="M341.38,277.84c3.85,5.96,10.18,11.97,17.9,9.71,3.56-1.04,6.21-3.88,8.09-6.96s3.66-6.6,2.5-10.15c-1.06-3.26-4.64-6.31-8.25-5.39-.9,.23-.52,1.63,.39,1.4,2.01-.51,4.36,.89,5.51,2.48,1.08,1.5,1.55,3.4,1.17,5.21-.41,1.97-1.42,3.84-2.45,5.55s-2.19,3.22-3.68,4.47c-3.1,2.6-7.81,3.21-11.46,1.34s-6.31-5.07-8.45-8.39c-.5-.78-1.76-.06-1.25,.73h0Z"/>
      </g>
      <path class="cls-28" d="M321.08,468.49c-1.67-3.05-1.82-6.89-.21-10,1.46-2.82,4.12-4.84,7.2-5.56,.91-.21,.52-1.61-.39-1.4-3.49,.81-6.6,3.21-8.18,6.44-1.73,3.55-1.57,7.8,.32,11.25,.45,.82,1.7,.09,1.25-.73h0Z"/>
      <path class="cls-28" d="M251.6,555.44c4.24-6.77,12.98-9.31,20.18-5.82,.84,.41,1.57-.84,.73-1.25-7.93-3.84-17.49-1.14-22.17,6.34-.5,.79,.76,1.52,1.25,.73h0Z"/>
      <path class="cls-11" d="M299.19,387.37c-2.76,5.75-5.55,11.58-6.82,17.84s-.9,13.08,2.37,18.56c2.41,4.04,6.23,7.11,8.6,11.18-1.41,1.62-2.81,3.24-4.22,4.85-.39,.45-.8,.91-1.35,1.11-.61,.22-1.28,.09-1.91-.06-7.09-1.67-13.73-5.21-19.06-10.17-.93-.87-1.87-1.86-2.06-3.12-.17-1.15-.8-2-.3-3.05,4.9-10.26,12.51-19.94,18.96-29.3"/>
      <path class="cls-28" d="M295.9,436.39c.7,0,.7-1.09,0-1.09s-.7,1.09,0,1.09h0Z"/>
      <path class="cls-28" d="M273.77,424.39c7.19-12.82,14.99-25.47,23.74-37.29,2.96-4,6.05-7.94,9.6-11.44,.67-.66-.36-1.68-1.03-1.03-6.69,6.61-12.1,14.61-17.28,22.42-4.78,7.21-9.32,14.59-13.68,22.06-.88,1.51-1.76,3.02-2.61,4.54-.46,.81,.79,1.55,1.25,.73h0Z"/>
      <path class="cls-28" d="M271.32,421.66c2.01,6.31,6.82,11.18,12.46,14.47,3.11,1.81,6.47,3.2,9.88,4.34,.86,.29,1.73,.54,2.58,.85,.5,.18,.93,.36,1.45,.15,.49-.2,.77-.62,1.1-1.01,.51-.6,1.14-1.09,1.73-1.61,12.22-10.75,24.44-21.52,36.55-32.4,1.78-1.6,3.56-3.2,5.33-4.81,1.59-1.45,3.11-3.08,4.78-4.44,1.24-1.01,2.88-1.69,4.27-2.48,.61-.35,.06-1.29-.55-.94-1.28,.73-2.57,1.43-3.84,2.19-.91,.54-1.62,1.4-2.39,2.12-1.43,1.33-2.87,2.65-4.32,3.96-5.8,5.26-11.65,10.46-17.51,15.66-5.72,5.08-11.46,10.15-17.2,15.21-1.44,1.27-2.88,2.54-4.32,3.81-1.18,1.04-2.46,2.01-3.48,3.21-.61,.72-1.24,.37-2.01,.11-.84-.28-1.68-.53-2.51-.82-1.78-.61-3.53-1.29-5.24-2.07-6.91-3.17-13.32-8.27-15.71-15.75-.21-.66-1.26-.38-1.05,.29h0Z"/>
      <path class="cls-28" d="M276.31,423.61c3.93,5.59,9.62,9.78,16.13,11.85,.67,.21,.95-.84,.29-1.05-6.23-1.98-11.73-5.99-15.48-11.35-.4-.57-1.34-.03-.94,.55h0Z"/>
      <path class="cls-11" d="M264.52,335.68c.93,0,.93-1.45,0-1.45s-.93,1.45,0,1.45h0Z"/>
      <path class="cls-11" d="M266.7,337.32c.93,0,.93-1.45,0-1.45s-.93,1.45,0,1.45h0Z"/>
      <path class="cls-11" d="M263.24,338.77c.93,0,.93-1.45,0-1.45s-.93,1.45,0,1.45h0Z"/>
      <path class="cls-11" d="M311.28,347.14c.93,0,.93-1.45,0-1.45s-.93,1.45,0,1.45h0Z"/>
      <path class="cls-11" d="M314.74,348.78c.93,0,.93-1.45,0-1.45s-.93,1.45,0,1.45h0Z"/>
      <path class="cls-11" d="M312.74,345.69c.93,0,.93-1.45,0-1.45s-.93,1.45,0,1.45h0Z"/>
      <path class="cls-11" d="M314.69,400.01c5.51-6.77,10.89-13.64,16.14-20.61,.48-.63,.1-1.61-.52-1.98-.74-.44-1.51-.1-1.98,.52-5.1,6.77-10.33,13.44-15.69,20.02-1.17,1.44,.87,3.5,2.05,2.05h0Z"/>
      <path class="cls-28" d="M281.98,434.12c10.24-11.32,20.23-22.88,29.95-34.66,4.67-5.67,9.39-11.33,13.83-17.18,3.68-4.84,7.23-10.74,5.76-17.06-1.21-5.19-5.51-8.85-9.91-11.46-5.77-3.42-12.21-5.78-18.34-8.46-7.03-3.08-14.05-6.15-21.08-9.23-6.44-2.83-12.88-5.71-19-9.2-12.57-7.16-24.31-17.64-28.06-32.13-.23-.9-1.63-.52-1.4,.39,3.09,11.93,11.63,21.53,21.53,28.47,11.67,8.17,25.26,13.32,38.24,19,6.88,3.01,13.78,6,20.65,9.04,4.88,2.16,10.14,4.69,13.51,8.98,1.77,2.25,2.79,4.97,2.75,7.84-.05,3.4-1.55,6.59-3.34,9.42-1.91,3.03-4.22,5.79-6.45,8.58s-4.63,5.76-6.97,8.62c-10.58,12.94-21.49,25.61-32.7,38.01-.62,.69,.4,1.72,1.03,1.03h0Z"/>
      <path class="cls-11" d="M405.49,400.41c.93,0,.93-1.45,0-1.45s-.93,1.45,0,1.45h0Z"/>
      <path class="cls-11" d="M229.75,411.99c5.11,25.45,11.03,50.75,18.38,75.65,2.1,7.12,4.32,14.2,6.67,21.24,.59,1.76,3.39,1.01,2.8-.77-8.2-24.63-14.83-49.76-20.45-75.1-1.61-7.25-3.13-14.52-4.59-21.8-.37-1.83-3.16-1.05-2.8,.77h0Z"/>
      <path class="cls-28" d="M226.93,329.17c-2.03,13.81-1.65,27.91-.46,41.77,1.34,15.67,3.84,31.24,6.9,46.66,2.92,14.72,6.39,29.34,10.24,43.85,2.97,11.21,6.17,22.36,9.59,33.43,1.07,3.45,2.16,6.9,3.28,10.34,.51,1.56,.95,3.19,1.57,4.72,.03,.07,.05,.14,.07,.2,.3,.88,1.7,.5,1.4-.39-1.39-4.04-2.68-8.11-3.95-12.19-3.24-10.32-6.27-20.71-9.11-31.15-3.86-14.19-7.37-28.47-10.38-42.86-3.23-15.42-5.93-30.98-7.58-46.66-1.48-14.13-2.22-28.49-.75-42.65,.16-1.57,.36-3.13,.59-4.69,.13-.91-1.26-1.31-1.4-.39h0Z"/>
      <path class="cls-28" d="M292.63,222.87c.93,0,.93-1.45,0-1.45s-.93,1.45,0,1.45h0Z"/>
      <path class="cls-28" d="M303.37,262.44c.93,0,.93-1.45,0-1.45s-.93,1.45,0,1.45h0Z"/>
      <g>
        <path class="cls-27" d="M262.07,104.57l-29.43,5.97c-.25,.05-.49-.11-.55-.35l-8.63-36.58c-1-4.24,1.77-8.44,6.06-9.2l33.13-5.81c1.4-.24,2.73,.67,3.01,2.05l5.98,29.48c1.34,6.63-2.94,13.1-9.57,14.44Z"/>
        <rect class="cls-27" x="218.5" y="67.67" width="43.98" height="43.98" rx="6.17" ry="6.17" transform="translate(-11.95 43.3) rotate(-10.04)"/>
        <circle class="cls-7" cx="245.21" cy="37.4" r="6.41"/>
        <circle class="cls-7" cx="221.62" cy="48.02" r="4.12"/>
        <path class="cls-20" d="M220.67,80.43c2.09,9.02,2.68,14.37,4.77,23.39,.15,.64,.33,1.33,.83,1.75,.63,.52,1.55,.45,2.36,.35,9.98-1.23,16.79-2.73,26.77-3.96,.47-.06,2.39-1.3,2.77-1.59,.79-.6,1.24-2.89,1.04-3.86-1.69-8.49-2.21-14.45-3.89-22.95-.11-.53-.22-1.09-.56-1.51-.7-.88-3.81-1.66-4.93-1.55-10.93,1.03-16.29,2.84-27.02,5.13"/>
        <circle class="cls-33" cx="245.21" cy="37.09" r="6.72"/>
        <circle class="cls-33" cx="221.62" cy="48.02" r="4.21"/>
        <path class="cls-28" d="M231.47,66.69c-2.11-4.34-4.21-8.68-6.32-13.01-.3-.62-.6-1.25-.91-1.87-.41-.84-1.66-.1-1.25,.73,2.11,4.34,4.21,8.68,6.32,13.01,.3,.62,.6,1.25,.91,1.87,.41,.84,1.66,.1,1.25-.73h0Z"/>
        <path class="cls-28" d="M243.03,65.8c.52-6.41,1.03-12.81,1.55-19.22,.07-.92,.15-1.84,.22-2.77s-1.38-.93-1.45,0c-.52,6.41-1.03,12.81-1.55,19.22-.07,.92-.15,1.84-.22,2.77s1.38,.93,1.45,0h0Z"/>
        <path class="cls-28" d="M231.03,109.76c1.56-.34,3.12-.57,4.71-.69,.39-.03,.72-.31,.72-.72,0-.37-.33-.75-.72-.72-1.71,.13-3.42,.37-5.1,.74-.38,.08-.61,.53-.51,.89,.11,.39,.51,.59,.89,.51h0Z"/>
        <path class="cls-28" d="M239.98,108.68c.93,0,.93-1.45,0-1.45s-.93,1.45,0,1.45h0Z"/>
        <path class="cls-8" d="M224.88,78.53c5.36-1.14,10.76-2.15,16.17-3.01,.77-.12,1.2-1.09,1.01-1.78-.23-.82-1.01-1.14-1.78-1.01-5.42,.87-10.81,1.87-16.17,3.01-1.82,.39-1.05,3.18,.77,2.8h0Z"/>
        <path class="cls-8" d="M243.49,72.12c-.22,.37-.29,.72-.33,1.13-.02,.2,.03,.41,.06,.59,.01,.08,.03,.15,.05,.23,.14,.37,.31,.72,.6,.99,.11,.1,.23,.19,.35,.27,.03,.02,.07,.05,.1,.07,.17,.1,.36,.18,.55,.24s.39,.07,.58,.09c.08,0,.16,0,.24,0,.4-.04,.77-.11,1.12-.34,.13-.09,.26-.19,.38-.29,.03-.03,.06-.05,.08-.08,.1-.11,.2-.24,.28-.36,.03-.04,.05-.08,.07-.12,.18-.35,.32-.76,.28-1.15s-.08-.57-.26-.92c-.02-.04-.05-.08-.08-.12-.09-.12-.18-.26-.29-.36-.14-.14-.31-.27-.49-.36-.14-.06-.28-.14-.44-.17-.08-.02-.17-.02-.24-.03-.09-.01-.17-.03-.26-.03-.2,0-.39,.03-.56,.12-.18,.06-.34,.16-.47,.3-.14,.13-.24,.29-.3,.47-.09,.17-.13,.36-.12,.56,.02,.38,.14,.76,.42,1.03s.63,.42,1.03,.42c.02,0,.05,0,.07,0l-.39-.05s.09,.02,.13,.04l-.35-.15c.05,.02,.1,.05,.14,.08l-.29-.23s.08,.07,.12,.12l-.23-.29s.06,.09,.09,.14l-.15-.35c.02,.05,.04,.1,.05,.16l-.05-.39c0,.06,0,.12,0,.18l.05-.39c0,.07-.03,.13-.05,.2l.15-.35c-.03,.07-.07,.14-.12,.2l.23-.29c-.05,.06-.1,.11-.17,.16l.29-.23c-.05,.04-.11,.07-.17,.1l.35-.15c-.08,.03-.17,.06-.26,.07l.39-.05c-.09,.01-.18,0-.27,0l.39,.05c-.09-.01-.17-.04-.26-.07l.35,.15c-.07-.03-.14-.07-.21-.12l.29,.23c-.06-.05-.11-.1-.15-.16l.23,.29c-.05-.07-.09-.14-.12-.21l.15,.35c-.03-.08-.06-.17-.07-.26l.05,.39c0-.09,0-.18,0-.27l-.05,.39c.01-.08,.03-.16,.07-.23l-.15,.35s.03-.07,.06-.11c.11-.17,.16-.35,.17-.54,.04-.19,.03-.39-.03-.58-.04-.19-.13-.35-.26-.49-.1-.16-.24-.28-.41-.37-.34-.18-.74-.27-1.12-.15s-.67,.33-.87,.67h0Z"/>
        <path class="cls-26" d="M245.47,107.36c3.96-1.02,7.97-1.86,12-2.52,.77-.13,1.2-1.09,1.01-1.78-.23-.82-1.01-1.14-1.78-1.01-4.04,.66-8.04,1.5-12,2.52-1.81,.47-1.04,3.26,.77,2.8h0Z"/>
        <path class="cls-28" d="M220.38,71.7c2.42-1.64,4.83-3.29,7.25-4.93,.51-.35,1.05-.67,1.54-1.05,.08-.06,.17-.13,.26-.18,.05-.02-.3,.11-.08,.05,.65-.17,1.33-.24,1.99-.36l20.46-3.66c2.09-.37,4.18-.75,6.26-1.12,1.05-.19,.6-1.79-.44-1.6-5.37,.96-10.75,1.92-16.12,2.89l-9.88,1.77c-1.51,.27-2.67,.35-3.92,1.21-2.72,1.85-5.43,3.7-8.15,5.55-.88,.6-.05,2.03,.84,1.43h0Z"/>
        <path class="cls-26" d="M261.95,82.17c1.42,6.55,1.76,13.28,2.77,19.9,.17,1.1,1.73,1.36,2.42,.64,1.32-1.39,2.85-2.63,3.77-4.35,1.31-2.46,1.21-5.22,.7-7.89-.35-1.83-3.14-1.06-2.8,.77,.38,2.01,.49,4.18-.61,5.99-.8,1.33-2.06,2.31-3.12,3.42l2.42,.64c-1-6.62-1.34-13.34-2.77-19.9-.4-1.82-3.19-1.05-2.8,.77h0Z"/>
        <path class="cls-28" d="M237.93,68.62c2.89-.51,5.78-1.02,8.67-1.54l4.92-.87c1.68-.3,3.3-.33,4.79,.69,2.13,1.45,2.33,3.85,2.74,6.16,.19,1.05,1.78,.6,1.6-.44-.36-2.05-.57-4.1-1.95-5.76-1.66-2-4.21-2.81-6.74-2.39-3.46,.57-6.91,1.22-10.37,1.84l-4.09,.72c-1.05,.19-.6,1.78,.44,1.6h0Z"/>
        <path class="cls-28" d="M259.81,77.35c1.39,7.86,2.78,15.72,4.17,23.57,.45,2.52-.29,5.06-2.72,6.31-1.06,.55-2.37,.66-3.53,.87l-13.62,2.41-13.75,2.43c-1.24,.22-2.49,.54-3.76,.28-2.54-.52-3.89-2.58-4.31-4.97-1.58-8.92-3.16-17.84-4.74-26.76-.22-1.22-.46-2.43-.65-3.65-.47-3.03,1.41-5.7,4.42-6.3,4.12-.83,8.29-1.47,12.43-2.2l1.36-.24c1.05-.19,.6-1.78-.44-1.6-4.23,.75-8.45,1.5-12.68,2.24-2.51,.44-4.79,1.41-6.04,3.82-.92,1.79-.85,3.61-.51,5.51,1.66,9.39,3.33,18.78,4.99,28.17,.22,1.25,.36,2.53,.9,3.69,1.37,2.96,4.56,4.41,7.71,3.89,3.6-.59,7.18-1.27,10.77-1.91,5.33-.94,10.65-1.89,15.98-2.83,1.37-.24,2.74-.47,4.1-.73,2.76-.51,5.05-2.47,5.73-5.24,.4-1.66,.03-3.25-.26-4.88l-1.23-6.94-2.57-14.53-.16-.89c-.19-1.05-1.78-.6-1.6,.44h0Z"/>
        <path class="cls-28" d="M256.64,66.38c1.28-1.28,2.56-2.56,3.84-3.85,1-1,3.52-4.36,4.91-1.97,.42,.73,.43,1.89,.57,2.69l.95,5.57c1.3,7.63,2.45,15.29,3.92,22.89,.3,1.56,.52,3.13-.01,4.67-.6,1.75-1.91,3.14-3.16,4.45-1.45,1.52-2.89,3.05-4.33,4.58-.73,.77,.44,1.95,1.17,1.17,1.41-1.49,2.81-2.98,4.22-4.46,2.13-2.24,4.16-4.69,4.09-7.95-.03-1.58-.45-3.13-.71-4.69l-.87-5.12-2.64-15.54-1.03-6.07c-.18-1.07-.24-2.35-.88-3.26-.95-1.34-2.83-1.78-4.28-1-.76,.41-1.37,1.17-1.98,1.78-1.65,1.65-3.29,3.3-4.94,4.94-.75,.76,.42,1.93,1.17,1.17h0Z"/>
        <path class="cls-31" d="M239.13,104.56c4.04-.8,8.08-1.59,12.12-2.39,1.8-.36,3.83-.52,5.54-1.21s2.6-2.45,1.82-4.19c-.32-.71-1.36-.89-1.98-.52-.73,.43-.84,1.26-.52,1.98-.14-.32,0-.08-.27,0-.3,.08-.6,.2-.91,.27-.69,.15-1.39,.28-2.09,.41l-4.88,.96c-3.2,.63-6.39,1.26-9.59,1.89-1.83,.36-1.05,3.16,.77,2.8h0Z"/>
        <path class="cls-28" d="M257.74,92.9c.34,1.93,1.25,4.46,.24,6.29-.87,1.59-2.41,1.91-4.01,2.19l-12.32,2.18-11.28,2c-2.33,.41-4.47-.69-4.98-3.14-.2-.97-.35-1.96-.52-2.93-.81-4.56-1.62-9.13-2.42-13.69l-.87-4.92c-.42-2.36,.58-4.56,3.12-5.09,7.35-1.54,14.83-2.63,22.23-3.94,1.02-.18,2.05-.4,3.07-.54,2.57-.35,4.17,1.47,4.58,3.8l2.19,12.34,.2,1.13c.19,1.05,1.78,.6,1.6-.44-.71-3.98-1.41-7.97-2.12-11.95-.35-1.98-.59-3.92-2.26-5.31s-3.46-1.39-5.39-1.05c-8.12,1.44-16.26,2.78-24.36,4.31-2.64,.5-4.66,2.68-4.69,5.42-.01,1.21,.35,2.5,.56,3.68l2.58,14.56c.28,1.59,.55,3.18,.84,4.77,.48,2.56,2.43,4.55,5.1,4.75,1.18,.09,2.45-.27,3.61-.47l6.39-1.13,14.45-2.56c1.09-.19,2.29-.29,3.33-.7,1.56-.62,2.78-1.95,3.26-3.55,.37-1.22,.17-2.4-.04-3.62l-.5-2.84c-.19-1.05-1.78-.6-1.6,.44h0Z"/>
        <rect class="cls-28" x="231.76" y="81.5" width="4.87" height="11.72" rx="2.17" ry="2.17" transform="translate(-11.64 42.17) rotate(-10.04)"/>
        <rect class="cls-28" x="242.17" y="79.66" width="4.87" height="11.72" rx="2.17" ry="2.17" transform="translate(-11.16 43.95) rotate(-10.04)"/>
        <circle class="cls-8" cx="243.2" cy="35.59" r="1.32"/>
        <circle class="cls-8" cx="220.6" cy="46.83" r="1.32"/>
      </g>
      <path class="cls-28" d="M244.32,285.92c.93,0,.93-1.45,0-1.45s-.93,1.45,0,1.45h0Z"/>
      <path class="cls-28" d="M245.68,282.37c.93,0,.93-1.45,0-1.45s-.93,1.45,0,1.45h0Z"/>
      <path class="cls-28" d="M243.23,280.73c.93,0,.93-1.45,0-1.45s-.93,1.45,0,1.45h0Z"/>
      <path class="cls-28" d="M135.69,278.11c-2.72-6.6-4.52-13.57-5.26-20.68-.37-3.51-.48-7.04-.35-10.56,.12-3.08,.07-6.88,2.42-9.21,.66-.66-.36-1.68-1.03-1.03-2.23,2.22-2.56,5.41-2.75,8.4-.24,3.82-.19,7.67,.16,11.48,.69,7.55,2.51,14.97,5.4,21.98,.35,.85,1.75,.48,1.4-.39h0Z"/>
      <path class="cls-28" d="M136.49,285.35c3.32,7.22,5.97,14.72,7.96,22.41,.23,.9,1.63,.52,1.4-.39-2.02-7.82-4.74-15.43-8.11-22.76-.39-.85-1.64-.11-1.25,.73h0Z"/>
      <path class="cls-28" d="M146.06,312.66c.93,0,.93-1.45,0-1.45s-.93,1.45,0,1.45h0Z"/>
      <path class="cls-28" d="M146.54,317.33c1.54,4.57,2.47,9.3,3.28,14.04s1.69,9.87,2.31,14.84c1.22,9.85,.95,19.68,.11,29.54-.43,5.03-1.45,10.42,.43,15.28,.33,.86,1.74,.49,1.4-.39-1.72-4.44-.87-9.31-.46-13.92,.44-4.97,.78-9.96,.85-14.95,.13-9.76-1.31-19.33-2.91-28.93-.9-5.37-1.86-10.74-3.6-15.91-.3-.88-1.7-.5-1.4,.39h0Z"/>
      <path class="cls-28" d="M154.8,395.64c.93,0,.93-1.45,0-1.45s-.93,1.45,0,1.45h0Z"/>
      <path class="cls-28" d="M156.37,399.05c1.25,2.8,3.58,4.77,5.9,6.67s5.08,4.08,5.99,7.15c.97,3.29-.5,6.73,.06,10.07,.51,3.07,2.45,5.63,4.35,8,.58,.73,1.6-.3,1.03-1.03-2.16-2.7-4.14-5.54-4.08-9.14,.06-3.15,.96-6.23-.32-9.27-2.39-5.65-9.19-7.63-11.68-13.19-.38-.85-1.63-.11-1.25,.73h0Z"/>
      <path class="cls-28" d="M30.38,15.36c-1.46,2.17-1.68,4.88-1.6,7.42s.57,4.99,1.88,7.11c2.32,3.73,7.71,5.65,11.24,2.38,2.24-2.07,2.78-5.21,3-8.11,.07-.93-1.38-.93-1.45,0-.2,2.74-.74,5.98-3.24,7.6-2.07,1.35-4.78,.73-6.62-.72-2.09-1.64-3.01-4.34-3.28-6.9s-.23-5.75,1.32-8.06c.52-.78-.73-1.5-1.25-.73h0Z"/>
      <path class="cls-22" d="M27.8,46.74c2.21-2.17,4.85-3.94,7.74-5.06,1.6-.62,3.23-.91,4.87-1.36,1.94-.53,2.03-2.75,2.42-4.4,.43-1.81-2.36-2.59-2.8-.77-.1,.42-.2,.83-.3,1.25-.09,.38-.29,.85-.3,1.25l-.06,.22c.41-.3,.5-.41,.26-.33-.08-.02-.33,.07-.41,.08-.4,.08-.81,.16-1.21,.26-1.63,.39-3.22,.95-4.75,1.63-2.8,1.25-5.35,3.04-7.53,5.18-1.33,1.31,.72,3.36,2.05,2.05h0Z"/>
      <path class="cls-28" d="M24.86,49.67c-.54-.66-.77-1.58-1.16-2.33s-.89-1.53-1.42-2.23c-1.03-1.37-2.22-2.59-3.5-3.72-2.58-2.28-5.46-4.18-8.23-6.22-2.4-1.76-5.08-3.32-7.16-5.46-.98-1.02-1.9-2.29-1.94-3.75-.06-2.07,1.6-3.92,2.74-5.5C8.99,13.72,14.48,6.63,22.21,3.13c3.41-1.54,7.65-2.54,11.19-.83,3.27,1.58,5.78,4.95,7.31,8.15,1.92,4.03,2.41,8.51,2.38,12.92-.04,4.78-.68,9.55-1.87,14.17-.23,.9,1.17,1.29,1.4,.39,1.12-4.4,1.78-8.93,1.9-13.47,.12-4.2-.18-8.51-1.62-12.49-1.32-3.66-3.53-6.99-6.56-9.45S29.73-.45,26,.34C17.38,2.18,11.02,9.12,5.85,15.79c-1.47,1.9-2.92,3.83-4.26,5.83-1,1.48-1.8,3.11-1.55,4.94,.44,3.13,3.39,5.32,5.78,7.01,3.32,2.35,6.7,4.66,9.9,7.16,1.7,1.33,3.34,2.76,4.73,4.41,.73,.86,1.37,1.78,1.9,2.77,.5,.94,.79,1.95,1.47,2.78,.59,.72,1.61-.31,1.03-1.03h0Z"/>
      <path class="cls-28" d="M75.75,75.05c-6.73-8.85-13.62-17.57-20.36-26.4-1.52-1.99-3.06-3.97-4.47-6.05-.9-1.33-1.88-2.72-3.4-3.38-1.92-.84-4.27-.34-6.24,.05-2.42,.48-4.77,1.29-6.99,2.37-4.5,2.2-8.35,5.57-11.11,9.74-.52,.78,.74,1.51,1.25,.73,2.37-3.58,5.6-6.52,9.37-8.59,2.05-1.13,4.24-1.99,6.51-2.56,1.96-.49,4.8-1.31,6.74-.38,1.56,.75,2.44,2.5,3.38,3.86,1.35,1.95,2.86,3.82,4.3,5.7,3.03,3.96,6.1,7.9,9.17,11.83,3.57,4.57,7.09,9.19,10.6,13.8,.56,.73,1.82,.01,1.25-.73h0Z"/>
    </g>
  </g>
</svg>